

<svg xmlns="http://www.w3.org/2000/svg" xmlns:xlink="http://www.w3.org/1999/xlink" fill-rule="evenodd" viewBox="0 0 1920 1080">
<style>
/* <![CDATA[ */

#monitor_block1 {
    animation: move 6s ease infinite;
}
#monitor_block2 {
    animation: move 6s 2s ease infinite;
}
#monitor_block3 {
    animation: move 6s 4s ease infinite;
}
@keyframes move {
    0%, 33%, 100% {
        transform: translate(-10px, 4px);
    }
    5%, 28% {
        transform: translate(0px, 0px);
    }
}

#l1, #l2, #l3 {
visibility: hidden;
animation-duration: 1s;
animation-iteration-count: infinite;
animation-timing-function: steps(1);
}

#l1 {animation-name: l1}
#l2 {animation-name: l2}
#l3 {animation-name: l3}

@keyframes l1 {0.00%{visibility: visible} 33.33%{visibility: hidden}}
@keyframes l2 {33.33%{visibility: visible} 66.67%{visibility: hidden}}
@keyframes l3 {66.67%{visibility: visible} 100.00%{visibility: hidden}}

#icn1, #icn2, #icn3 {
    opacity: 0;
    animation: move3 6s linear infinite;
}

#icn2 {
    animation: move3_1 6s 2s linear infinite;
}

#icn3 {
    animation: move3_2 6s 4s linear infinite;
}

@keyframes move3 {
    0%, 100% {
        opacity: 0;
    }
    10%, 90% {
        opacity: 1;
    }
    0% {
        transform: translate(-340px, -320px);
    }
    10% {
        transform: translate(0px, 0px);
    }
    100% {
        transform: translate(300px, 0px);
    }
}

@keyframes move3_1 {
    0%, 100% {
        opacity: 0;
    }
    10%, 90% {
        opacity: 1;
    }
    0% {
        transform: translate(10px, -200px);
    }
    10% {
        transform: translate(0px, 0px);
    }
    100% {
        transform: translate(300px, 0px);
    }
}

@keyframes move3_2 {
    0%, 100% {
        opacity: 0;
    }
    10%, 90% {
        opacity: 1;
    }
    0% {
        transform: translate(-285px, -16px);
    }
    10% {
        transform: translate(0px, 0px);
    }
    100% {
        transform: translate(300px, 0px);
    }
}

#rslt1, #rslt2, #rslt3, #rslt4 {
    opacity: 0;
    animation: move4 6s linear infinite;
}

#rslt2 {
    animation-delay: 1.5s;
}

#rslt3 {
    animation-delay: 3s;
}

#rslt4 {
    animation-delay: 4.5s;
}

@keyframes move4 {
    0%, 100% {
        opacity: 0;
    }
    10%, 90% {
        opacity: 1;
    }
    0% {
        transform: translate(0px, 0px);
    }
    100% {
        transform: translate(400px, 0px);
    }
}

#table {
  animation: clp 18s 6s linear infinite;
}

@keyframes clp {
  0% {
    transform: translate(0px, 0px);
  }
  1%, 7.33% {
    transform: translate(0px, -25.205px);
  }
  8.33%, 15.67% {
    transform: translate(0px, -50.41px);
  }
  16.67%, 24% {
    transform: translate(0px, -75.615px);
  }
  25%, 32.33% {
    transform: translate(0px, -100.82px);
  }
  33.33%, 40.67% {
    transform: translate(0px, -126.025px);
  }
  41.67%, 49% {
    transform: translate(0px, -151.23px);
  }
  50%, 57.33% {
    transform: translate(0px, -176.435px);
  }
  58.33%, 65.67% {
    transform: translate(0px, -201.64px);
  }
  66.67%, 74% {
    transform: translate(0px, -226.845px);
  }
  75%, 82.33% {
    transform: translate(0px, -252.05px);
  }
  83.33%, 90.67% {
    transform: translate(0px, -277.255px);
  }
  91.67%, 100% {
    transform: translate(0px, -302.46px);
  }
}

/* ]]> */
</style>
<defs>
<clipPath id="table_clip">
  <rect id="clip_rect" x="1370" y="453" width="468" height="330"/>
</clipPath>
<linearGradient id="lnr1" x1="0" x2="1" y1="0" y2="0" gradientTransform="matrix(0 69.0885 -69.0885 0 316.68 846.067)" gradientUnits="userSpaceOnUse">
  <stop offset="0" stop-color="#a4a6a9"/>
  <stop offset=".04" stop-color="#aaacae"/>
  <stop offset=".3" stop-color="#d0d1d3"/>
  <stop offset=".51" stop-color="#e7e8e9"/>
  <stop offset=".64" stop-color="#f0f0f1"/>
  <stop offset=".68" stop-color="#e8e8e9"/>
  <stop offset=".74" stop-color="#d3d3d3"/>
  <stop offset=".82" stop-color="#afafb0"/>
  <stop offset=".91" stop-color="#7f7f7f"/>
  <stop offset=".95" stop-color="#636363"/>
  <stop offset="1" stop-color="#838383"/>
</linearGradient>
<linearGradient id="lnr2" x1="0" x2="1" y1="0" y2="0" gradientTransform="translate(192.795 885.652) scale(242.916)" gradientUnits="userSpaceOnUse">
  <stop offset="0" stop-color="#a5a7aa"/>
  <stop offset=".28" stop-color="#d7d7d9"/>
  <stop offset=".44" stop-color="#f0f0f1"/>
  <stop offset=".45" stop-color="#e8e8e9"/>
  <stop offset=".47" stop-color="#d3d3d3"/>
  <stop offset=".48" stop-color="#afafb0"/>
  <stop offset=".5" stop-color="#7f7f7f"/>
  <stop offset=".51" stop-color="#636363"/>
  <stop offset=".58" stop-color="#797979"/>
  <stop offset=".69" stop-color="#999"/>
  <stop offset=".81" stop-color="#b1b1b1"/>
  <stop offset=".91" stop-color="#bfbfbf"/>
  <stop offset="1" stop-color="#c4c4c4"/>
</linearGradient>
<linearGradient id="lnr3" x1="0" x2="1" y1="0" y2="0" gradientTransform="rotate(-160.7265 277.09261442 305.79470543) scale(530.668)" gradientUnits="userSpaceOnUse">
  <stop offset="0" stop-color="#bcc0c3"/>
  <stop offset=".19" stop-color="#fff"/>
  <stop offset=".29" stop-color="#e4e5e7"/>
  <stop offset=".44" stop-color="#b5b9be"/>
  <stop offset=".63" stop-color="#8f969d"/>
  <stop offset=".84" stop-color="#e1e4e6"/>
  <stop offset=".99" stop-color="#8c949c"/>
  <stop offset="1" stop-color="#8c949c"/>
</linearGradient>
<linearGradient id="lnr4" x1="0" x2="1" y1="0" y2="0" gradientTransform="matrix(-484.779 -54.7466 54.7466 -484.779 524.105 642.802)" gradientUnits="userSpaceOnUse">
  <stop offset="0" stop-color="#e0e2e4"/>
  <stop offset=".36" stop-color="#d5d6d8"/>
  <stop offset=".68" stop-color="#c4c5c8"/>
  <stop offset="1" stop-color="#abadb1"/>
</linearGradient>
<linearGradient id="lnr5" x1="0" x2="1" y1="0" y2="0" gradientTransform="rotate(-90 523.036 69.749) scale(209.489)" gradientUnits="userSpaceOnUse">
  <stop offset="0" stop-color="#030303"/>
  <stop offset=".03" stop-color="#060606"/>
  <stop offset=".17" stop-color="#131313"/>
  <stop offset=".31" stop-color="#171717"/>
  <stop offset=".63" stop-color="#2e2e2e"/>
  <stop offset="1" stop-color="#353535"/>
</linearGradient>
<radialGradient id="rdl6" cx="0" cy="0" r="1" gradientTransform="matrix(2.27597 0 0 -2.27597 890.819 615.667)" gradientUnits="userSpaceOnUse">
  <stop offset="0" stop-color="#fff" stop-opacity=".3"/>
  <stop offset="1" stop-color="#fff" stop-opacity="0"/>
</radialGradient>
<radialGradient id="rdl7" cx="0" cy="0" r="1" gradientTransform="matrix(2.64728 0 0 -2.64728 890.818 623.289)" gradientUnits="userSpaceOnUse">
  <stop offset="0" stop-color="#fff" stop-opacity=".3"/>
  <stop offset="1" stop-color="#fff" stop-opacity="0"/>
</radialGradient>
<g id="browser_window">
<path fill="#bfbfbf" fill-opacity=".1" d="M1861.01 395.519h-574.689c-11.798 0-21.451 9.653-21.451 21.451v381.983c0 11.798 9.653 21.451 21.451 21.451h574.689c11.798 0 21.451-9.653 21.451-21.451V416.97c0-11.798-9.653-21.451-21.451-21.451z"/>
<path fill="#bfbfbf" fill-opacity=".1" d="M1860.84 392.857h-579.42c-10.497 0-19.086 8.589-19.086 19.086v386.713c0 10.497 8.589 19.086 19.086 19.086h579.42c10.497 0 19.086-8.589 19.086-19.086V411.943c0-10.497-8.589-19.086-19.086-19.086z"/>
<path fill="#bfbfbf" fill-opacity=".1" d="M1859.33 390.41h-580.718c-10.14 0-18.437 8.297-18.437 18.437v388.011c0 10.14 8.297 18.437 18.437 18.437h580.718c10.14 0 18.437-8.297 18.437-18.437V408.847c0-10.14-8.297-18.437-18.437-18.437z"/>
<path fill="#edecf2" stroke="#ccc" d="M1875.05 403.594c0-8.748-7.158-15.906-15.906-15.906h-585.779c-8.749 0-15.906 7.158-15.906 15.906v16.262h617.592v-16.262h-.001z"/>
<path fill="#fafafa" stroke="#ccc" d="M1257.45 419.856v376.811c0 8.748 7.158 15.906 15.906 15.906h585.779c8.748 0 15.906-7.158 15.906-15.906V419.856H1257.45z"/>
<circle cx="1282.93" cy="404.418" r="6.88" fill="#f46e74"/>
<circle cx="1304.43" cy="404.762" r="6.88" fill="#e8cb81"/>
<circle cx="1325.93" cy="404.762" r="6.88" fill="#a3cf6f"/>
</g>
<g id="csv">
<path fill="#f57b00" d="M1443.3 875.567h-38.357c-1.499 0-2.714-1.215-2.714-2.714v-14.391c0-1.499 1.215-2.714 2.714-2.714h38.357c1.499 0 2.714 1.215 2.714 2.714v14.391c0 1.499-1.215 2.714-2.714 2.714z"/>
<path fill="#0f3344" d="M1439.13 873.497h-4.268l-5.174-16.155h4.001l1.963 6.83c.573 1.9 1.054 3.826 1.439 5.773h.075c.408-1.938.915-3.86 1.456-5.707l2.063-6.905h3.885l-5.44 16.155v.009zm2.412 14.125h-35.687v-10.423h35.687v10.423zm-38.432-21.961c0-5.515 3.926-8.585 8.818-8.585 1.888 0 3.328.383 3.976.724l-.749 2.895c-.971-.401-2.011-.604-3.061-.599-2.903 0-5.158 1.747-5.158 5.349 0 3.228 1.913 5.266 5.182 5.266 1.098 0 2.329-.233 3.045-.524l.549 2.853c-.666.333-2.179.69-4.143.69-5.59 0-8.469-3.477-8.469-8.069m19.034 1.048c-2.687-.932-4.434-2.412-4.434-4.767 0-2.753 2.304-4.866 6.114-4.866 1.822 0 3.161.383 4.118.815l-.815 2.953c-1.052-.512-2.207-.776-3.377-.774-1.581 0-2.346.724-2.346 1.564 0 1.023.915 1.481 2.995 2.271 2.853 1.057 4.193 2.546 4.193 4.825 0 2.704-2.08 5-6.522 5-1.838 0-3.66-.474-4.575-.982l.749-3.02c.982.499 2.496 1.007 4.043 1.007 1.68 0 2.57-.69 2.57-1.747-.001-1.006-.766-1.58-2.713-2.279m-16.288-29.348h25.064v11.064c0 .607.482 1.081 1.082 1.081h9.55v5.424h-35.687v-17.569h-.009zm39.181 17.569h-1.314v-6.389l-.017-.125c0-.25-.083-.499-.25-.699l-10.648-12.145v-.008c-.064-.07-.137-.131-.216-.183l-.075-.042c-.07-.034-.142-.062-.216-.083l-.058-.025c-.075-.017-.166-.033-.25-.033h-26.137c-1.193.005-2.158.97-2.163 2.163v17.569h-1.323c-1.705.009-3.085 1.389-3.094 3.095v16.08c.009 1.705 1.389 3.085 3.094 3.095h1.331v11.006c0 1.19.973 2.163 2.163 2.163h35.687c1.19 0 2.163-.973 2.163-2.163V877.2h1.331c1.702-.014 3.077-1.392 3.086-3.095v-16.08c-.009-1.702-1.384-3.081-3.086-3.095"/>
</g>
<g id="json">
<path fill="#f57b00" d="M1538.62 871.509h-23.827c-2.457 0-4.448-1.992-4.448-4.448v-12.305c0-2.457 1.991-4.448 4.448-4.448h23.827c2.457 0 4.448 1.992 4.448 4.448v12.305c0 2.456-1.992 4.448-4.448 4.448z"/>
<path fill="#0f3344" d="M1547.55 874.819v14.259c0 .959-1.158 1.899-2.345 1.899h-38.106c-1.187 0-2.345-.94-2.345-1.899v-14.259h42.796zm-14.971 9.654c-.171.57-.465 1.092-.845 1.538-.361.408-.778.712-1.263.921-.498.213-1.034.32-1.576.313-.542.006-1.078-.1-1.576-.313-.484-.208-.916-.523-1.263-.921-.387-.449-.678-.972-.854-1.538-.214-.688-.316-1.406-.304-2.126 0-.807.104-1.519.313-2.126.199-.617.475-1.12.845-1.528.712-.821 1.753-1.28 2.839-1.253 1.089-.031 2.135.429 2.848 1.253.351.408.636.911.835 1.519.209.617.304 1.329.304 2.136.001.796-.094 1.518-.303 2.125zm-16.869.39c0 .456-.085.835-.247 1.139-.161.304-.38.551-.664.74-.275.19-.598.313-.949.389-1.383.27-2.818-.002-4.006-.759l.665-1.044c.095.047.209.114.38.18.551.209 1.12.351 1.709.399.456 0 .826-.095 1.092-.266.275-.19.418-.475.437-.911v-7.329h1.585l-.002 7.462zm7.547.693c-.291.685-.861 1.214-1.566 1.453-.38.152-.816.218-1.301.218-.437 0-.883-.057-1.31-.142-.222-.048-.438-.118-.646-.209-.199-.095-.38-.199-.532-.332l.285-1.12c.114.066.266.133.456.199.38.133.778.237 1.177.323.19.038.38.047.56.047.522 0 .93-.123 1.215-.37.285-.247.418-.608.418-1.092 0-.304-.095-.551-.294-.759-.218-.228-.475-.418-.75-.57l-.968-.503c-.351-.171-.665-.37-.978-.598-.3-.221-.557-.494-.76-.807-.209-.361-.304-.759-.285-1.177-.019-.75.304-1.471.864-1.965.256-.228.57-.408.921-.532.351-.114.721-.18 1.111-.18.399 0 .797.038 1.206.114.408.076.74.19.987.361l-.18.37-.19.38-.237.418c-.062-.031-.123-.065-.18-.104-.084-.059-.177-.104-.275-.133-.154-.051-.313-.083-.475-.095-.26-.016-.52-.01-.778.019-.173.018-.341.069-.494.152-.152.076-.285.18-.418.304-.114.123-.209.256-.285.408-.066.152-.095.294-.095.437 0 .342.095.627.285.835.209.218.456.399.75.57.285.152.617.313.959.456.351.152.664.342.968.56.687.459 1.083 1.244 1.044 2.07-.001.339-.067.671-.209.994zm18.758 1.623v-9.588h-1.585v6.607l-3.759-6.598h-1.585v9.588h1.585v-6.626l3.759 6.607h1.585v.01zm-11.439-7.623c-.384-.523-.994-.83-1.642-.826-.323 0-.627.057-.921.18-.285.123-.551.323-.778.617-.228.285-.408.665-.532 1.12-.293 1.101-.296 2.258-.01 3.361.123.456.294.835.522 1.12.38.522.997.835 1.642.835.665.019 1.301-.285 1.699-.807.228-.285.408-.655.541-1.12.285-1.101.285-2.25 0-3.351-.094-.408-.284-.787-.521-1.129zm4.12-43.735c.475 0 .93.19 1.263.522l11.069 11.069c.437.437.522.978.522 1.709v23.79h-42.795v-34.299c0-1.918 1.215-2.791 2.345-2.791h27.596zm-20.43 24.73c1.044 0 1.899-.854 1.899-1.899v-3.807c0-1.573 1.275-2.848 2.848-2.848.524 0 .949.425.949.949s-.425.949-.949.949-.949.425-.949.949v3.797c0 1.149-.513 2.164-1.31 2.857.83.715 1.311 1.753 1.32 2.848v3.807c0 .524.425.949.949.949.522 0 .949.427.949.949 0 .532-.427.959-.949.959-1.573 0-2.848-1.275-2.848-2.848v-3.807c0-1.044-.854-1.899-1.899-1.899h-.01c-.524 0-.949-.425-.949-.949s.425-.949.949-.949v-.007zm19.015-1.899v-3.807c0-.524-.425-.949-.949-.949s-.949-.425-.949-.949.425-.949.949-.949c1.573 0 2.848 1.275 2.848 2.848v3.797c0 1.054.854 1.908 1.908 1.908.524 0 .949.425.949.949s-.425.949-.949.949c-1.044 0-1.899.854-1.899 1.899v3.807c0 1.574-1.274 2.852-2.848 2.857-.524 0-.949-.425-.949-.949s.425-.949.949-.949.949-.425.949-.949v-3.807c0-1.139.513-2.155 1.31-2.848-.834-.716-1.315-1.759-1.319-2.858zm-6.645 8.553c0 .522-.427.949-.949.949-.532 0-.959-.427-.959-.949v-2.848c0-.524.425-.949.949-.949s.949.425.949.949v2.848h.01zm-.959-10.461c.778 0 1.424.646 1.424 1.424 0 .778-.646 1.424-1.424 1.424-.786 0-1.424-.638-1.424-1.424 0-.779.646-1.424 1.424-1.424zm18.645-7.604c.437 0 .664-.522.351-.835l-9.607-9.598c-.091-.091-.214-.142-.342-.142-.266 0-.475.218-.484.484v10.091h10.082z"/>
</g>
<g id="api">
<path fill="#f57b00" d="M1626.47 849.63c.707 0 1.274.575 1.274 1.274v5.704c0 .707.567 1.274 1.266 1.274h2.729c.526 0 .953.427.953.953v3.041c0 .526-.427.953-.953.953h-3.362c-.35 0-.633.283-.633.633v2.03c0 .353-.288.641-.641.641h-2.03c-.35 0-.633-.283-.633-.633v-2.038c0-.345.288-.633.633-.633h2.038c.345 0 .633-.279.633-.633v-3.041c0-.707-.575-1.274-1.274-1.274h-5.712c-.699 0-1.266-.575-1.266-1.274v-5.704c0-.707.575-1.274 1.266-1.274l5.712.001z"/>
<rect width="11.425" height="1.907" x="1600.45" y="858.515" fill="#f57b00"/>
<rect width="11.425" height="1.915" x="1600.45" y="854.068" fill="#f57b00"/>
<rect width="11.425" height="1.907" x="1600.45" y="849.629" fill="#f57b00"/>
<path fill="#0f3344" d="M1640.43 834.399h-45.699c-1.036.016-1.891.871-1.891 1.907v36.173c.009 1.042.849 1.885 1.891 1.899h45.699c1.048-.009 1.894-.859 1.899-1.907v-36.165c-.005-1.048-.851-1.898-1.899-1.907zm-3.916 3.013c.037 0 .074.001.11.003 1 .069 1.777.897 1.784 1.899 0 1.003-.789 1.841-1.784 1.907h-.123c-1.048-.004-1.898-.851-1.907-1.899.003-1.057.862-1.913 1.92-1.91zm-5.602.004h.123c1.051.005 1.902.856 1.907 1.907-.007 1.058-.87 1.909-1.928 1.902-.034 0-.068-.001-.102-.003-1-.069-1.777-.897-1.784-1.899 0-1.003.789-1.842 1.784-1.907zm-5.713 0h.123c1.051.005 1.902.856 1.907 1.907-.007 1.058-.87 1.909-1.928 1.902-.034 0-.068-.001-.102-.003-1-.069-1.777-.897-1.784-1.899.001-1.003.79-1.842 1.784-1.907zm13.324 33.156h-41.885v-26.655h41.885v26.655z"/>
<path fill="#0f3344" d="M1610.75 895.168l-.616-1.743h-4.63l-.634 1.743h-4.19l5.211-12.341h4.19l5.017 12.341h-4.348zm-4.19-4.665h2.57l-1.267-3.609-1.303 3.609z"/>
<path fill="#0f3344" d="M1625.32 883.98c.88.769 1.32 1.857 1.32 3.265 0 1.491-.44 2.65-1.32 3.477-.881.827-2.124 1.241-3.732 1.241h-1.707v3.204h-4.085v-12.341h5.792c1.608.002 2.851.386 3.732 1.154zm-2.914 4.49c.24-.264.361-.631.361-1.1 0-.458-.121-.813-.361-1.065-.241-.252-.584-.378-1.03-.378h-1.496v2.94h1.496c.446-.001.79-.133 1.03-.397z"/>
<rect width="4.085" height="12.341" x="1627.88" y="882.828" fill="#0f3344"/>
</g>
<g id="web">
<path fill="#0f3344" d="M1711.62 876.432c-10.432 0-18.893-2.825-18.893-6.295v-6.302c0-.545.272-1.061.667-1.577 2.108 2.717 9.428 4.732 18.226 4.732 8.797 0 16.118-2.015 18.226-4.732.394.509.667 1.032.667 1.577v6.302c-.001 3.47-8.461 6.295-18.893 6.295z"/>
<path fill="#f57b00" d="M1711.62 863.835c-10.432 0-18.893-2.818-18.893-6.295v-6.295c0-.337.122-.66.294-.982.093-.201.215-.401.373-.595 2.108 2.71 9.428 4.725 18.226 4.725 8.797 0 16.118-2.015 18.226-4.732.151.201.28.401.373.602.172.323.294.645.294.982v6.295c-.001 3.477-8.461 6.295-18.893 6.295z"/>
<path fill="#0f3344" d="M1711.62 832.345c-10.432 0-18.892 2.825-18.892 6.302v6.295c0 3.477 8.46 6.302 18.892 6.302v-.007c10.432 0 18.893-2.818 18.893-6.295v-6.295c0-3.477-8.46-6.302-18.893-6.302zm0 9.45c-6.955 0-12.597-1.405-12.597-3.148 0-1.742 5.643-3.148 12.597-3.148 6.955 0 12.597 1.405 12.597 3.14.001 1.75-5.642 3.156-12.597 3.156z"/>
<path fill="#0f3344" d="M1708.62 882.253h1.957l-1.957 5.788h-1.966l-.867-3.46-.892 3.46h-1.966l-1.94-5.788h2.047l.933 3.799.925-3.799h1.866l.942 3.799.918-3.799z"/>
<path fill="#0f3344" d="M1710.95 882.253h4.897v1.453h-2.981v.71h2.709v1.453h-2.709v.718h3.055v1.453h-4.971v-5.787z"/>
<path fill="#0f3344" d="M1720.79 882.434c.347.122.614.292.801.512.187.22.281.476.281.768 0 .286-.088.542-.265.768-.176.226-.413.382-.71.47.347.077.624.249.834.516.209.267.314.583.314.945 0 .325-.097.611-.289.859-.193.248-.464.437-.814.57-.349.132-.758.198-1.226.198h-3.072v-5.788h2.932c.463.001.867.061 1.214.182zm-1.003 1.933c.08-.077.12-.179.12-.306 0-.121-.04-.218-.12-.293-.08-.075-.185-.112-.318-.112h-.917v.826h.917c.132 0 .238-.038.318-.115zm.107 2.143c.107-.085.161-.197.161-.335 0-.126-.054-.228-.161-.306-.108-.077-.249-.116-.425-.116h-.917v.884h.917c.176 0 .318-.042.425-.127z"/>
<path fill="#0f3344" d="M1693.8 893.689c-.385-.137-.699-.206-.942-.206-.236 0-.355.085-.355.256 0 .132.075.234.227.306.151.071.392.151.722.239.413.116.755.231 1.028.347.272.116.511.299.714.549.204.251.305.58.305.987 0 .418-.109.769-.326 1.053-.218.284-.511.494-.88.632-.369.137-.779.206-1.23.206-.511 0-1.027-.084-1.548-.252-.52-.168-.97-.398-1.35-.689l.71-1.445c.292.253.658.469 1.098.648.441.179.81.268 1.107.268.143 0 .256-.026.339-.078.083-.052.124-.134.124-.244 0-.132-.079-.235-.235-.31-.157-.074-.403-.153-.739-.235-.407-.104-.747-.213-1.019-.326-.273-.113-.508-.288-.706-.524-.198-.237-.297-.554-.297-.95 0-.385.101-.722.305-1.011.204-.289.493-.511.867-.665.374-.154.81-.231 1.305-.231.452 0 .901.063 1.35.19.449.126.838.294 1.169.503l-.693 1.462c-.315-.182-.665-.342-1.05-.48z"/>
<path fill="#0f3344" d="M1696 892.162h4.897v1.453h-2.981v.71h2.709v1.453h-2.709v.718h3.056v1.453h-4.971v-5.787H1696z"/>
<path fill="#0f3344" d="M1705.02 897.95l-.693-1.503h-.718v1.503h-1.916v-5.788h2.799c.787 0 1.396.181 1.825.541.429.361.644.871.644 1.531 0 .419-.079.784-.235 1.095-.157.31-.384.557-.681.739l1.14 1.883h-2.165v-.001zm-1.411-2.956h.884c.209 0 .37-.062.483-.186.113-.124.169-.296.169-.516 0-.214-.056-.381-.169-.499-.113-.118-.274-.177-.483-.177h-.884v1.378z"/>
<path fill="#0f3344" d="M1707.19 892.162h2.047l1.198 3.799 1.189-3.799h1.957l-2.213 5.788h-1.982l-2.196-5.788z"/>
<rect width="1.916" height="5.788" x="1713.95" y="892.162" fill="#0f3344"/>
<path fill="#0f3344" d="M1720.26 893.85c-.239-.146-.472-.219-.698-.219-.226 0-.431.06-.615.178s-.327.282-.429.491c-.101.209-.152.446-.152.71 0 .265.051.503.152.714.102.212.245.379.429.5.185.121.39.181.615.181.209 0 .433-.062.673-.185.239-.124.453-.288.64-.491l1.107 1.181c-.325.358-.714.642-1.169.855-.454.212-.904.318-1.35.318-.583 0-1.108-.131-1.573-.392-.465-.261-.83-.625-1.094-1.09-.264-.465-.396-.987-.396-1.565 0-.573.135-1.086.405-1.539.27-.454.643-.811 1.119-1.07s1.015-.388 1.615-.388c.44 0 .884.097 1.329.293.446.196.818.456 1.115.78l-1.107 1.313c-.172-.237-.377-.429-.616-.575z"/>
<path fill="#0f3344" d="M1722.37 892.162h4.897v1.453h-2.981v.71h2.709v1.453h-2.709v.718h3.055v1.453h-4.971v-5.787z"/>
<path fill="#0f3344" d="M1731.36 893.689c-.385-.137-.699-.206-.942-.206-.236 0-.355.085-.355.256 0 .132.075.234.227.306.151.071.392.151.722.239.413.116.755.231 1.028.347.272.116.511.299.714.549.204.251.305.58.305.987 0 .418-.109.769-.326 1.053-.218.284-.511.494-.88.632-.369.137-.779.206-1.23.206-.511 0-1.027-.084-1.548-.252-.52-.168-.97-.398-1.35-.689l.71-1.445c.292.253.658.469 1.098.648.441.179.81.268 1.107.268.143 0 .256-.026.339-.078.083-.052.124-.134.124-.244 0-.132-.079-.235-.235-.31-.157-.074-.403-.153-.739-.235-.407-.104-.747-.213-1.019-.326-.273-.113-.508-.288-.706-.524-.198-.237-.297-.554-.297-.95 0-.385.101-.722.305-1.011.204-.289.493-.511.867-.665.374-.154.81-.231 1.305-.231.452 0 .901.063 1.35.19.449.126.838.294 1.169.503l-.693 1.462c-.315-.182-.665-.342-1.05-.48z"/>
</g>
<g id="table_header">
<rect width="465.697" height="25.205" x="1372.33" y="453.679" fill="#0f3344"/>
<rect width="58.859" height="7.2" x="1381.11" y="462.681" fill="#fff"/>
<rect width="29.267" height="7.2" x="1499.09" y="462.681" fill="#fff"/>
<rect width="78.938" height="7.2" x="1595.08" y="462.681" fill="#fff"/>
<rect width="29.267" height="7.2" x="1742.6" y="462.681" fill="#fff"/>
<path fill="#fff" d="M1494.69 469.78c-.555.555-1.2.996-1.936 1.324-.736.328-1.482.492-2.239.492-.857 0-1.651-.166-2.383-.499-.731-.333-1.354-.797-1.868-1.392-.514-.595-.872-1.276-1.074-2.042h-1.513v-.938h1.346c-.02-.222-.03-.398-.03-.53 0-.151.005-.262.015-.333h-1.331v-.938h1.467c.191-.787.547-1.487 1.066-2.103.519-.615 1.157-1.097 1.914-1.445.756-.348 1.578-.522 2.466-.522.756 0 1.498.151 2.224.454.726.303 1.346.716 1.861 1.24l-1.18 1.482c-.383-.423-.83-.759-1.339-1.006s-1.021-.371-1.535-.371c-.767 0-1.452.209-2.057.628-.605.419-1.028.966-1.271 1.641h3.858v.938h-4.069c-.01.071-.015.172-.015.303 0 .192.015.378.045.56h4.039v.938h-3.767c.282.615.713 1.107 1.293 1.475.58.368 1.228.552 1.944.552.504 0 1.008-.108 1.513-.325.504-.217.958-.522 1.362-.915l1.194 1.332z"/>
</g>
<g id="table">
<rect width="465.697" height="25.205" x="1372.33" y="478.883" fill="#f2f2f2"/>
<rect width="465.697" height="25.205" x="1372.33" y="504.088" fill="#e6e6e6"/>
<rect width="465.697" height="25.205" x="1372.33" y="529.293" fill="#f2f2f2"/>
<rect width="465.697" height="25.205" x="1372.33" y="554.497" fill="#e6e6e6"/>
<rect width="465.697" height="25.205" x="1372.33" y="579.702" fill="#f2f2f2"/>
<rect width="77.047" height="7.2" x="1381.11" y="487.886" fill="#b3b3b3"/>
<rect width="59.811" height="7.2" x="1483.72" y="487.886" fill="#b3b3b3"/>
<rect width="130.243" height="7.2" x="1595.08" y="487.886" fill="#b3b3b3"/>
<rect width="50.732" height="7.2" x="1381.11" y="513.09" fill="#b3b3b3"/>
<rect width="84.199" height="7.2" x="1483.72" y="513.09" fill="#b3b3b3"/>
<rect width="90.091" height="7.2" x="1595.08" y="513.09" fill="#b3b3b3"/>
<rect width="80.385" height="7.2" x="1381.11" y="538.295" fill="#b3b3b3"/>
<rect width="70.198" height="7.2" x="1483.72" y="538.295" fill="#b3b3b3"/>
<rect width="121.244" height="7.2" x="1595.08" y="538.295" fill="#b3b3b3"/>
<rect width="66.795" height="7.2" x="1381.11" y="563.5" fill="#b3b3b3"/>
<rect width="33.928" height="7.2" x="1483.72" y="563.5" fill="#b3b3b3"/>
<rect width="103.303" height="7.2" x="1595.08" y="563.5" fill="#b3b3b3"/>
<rect width="77.047" height="7.2" x="1381.11" y="588.704" fill="#b3b3b3"/>
<rect width="83.005" height="7.2" x="1483.72" y="588.704" fill="#b3b3b3"/>
<rect width="70.198" height="7.2" x="1741.86" y="487.886" fill="#b3b3b3"/>
<rect width="52.006" height="7.2" x="1741.86" y="513.09" fill="#b3b3b3"/>
<rect width="70.198" height="7.2" x="1741.86" y="538.295" fill="#b3b3b3"/>
<rect width="33.928" height="7.2" x="1741.86" y="563.5" fill="#b3b3b3"/>
<rect width="63.302" height="7.2" x="1741.86" y="588.704" fill="#b3b3b3"/>
<rect width="67.385" height="7.2" x="1595.08" y="588.704" fill="#b3b3b3"/>
<rect width="465.697" height="25.205" x="1372.33" y="604.907" fill="#e6e6e6"/>
<rect width="465.697" height="25.205" x="1372.33" y="630.112" fill="#f2f2f2"/>
<rect width="465.697" height="25.205" x="1372.33" y="655.316" fill="#e6e6e6"/>
<rect width="54.771" height="7.2" x="1381.11" y="613.909" fill="#b3b3b3"/>
<rect width="88.59" height="7.2" x="1483.72" y="613.909" fill="#b3b3b3"/>
<rect width="112.533" height="7.2" x="1595.08" y="613.909" fill="#b3b3b3"/>
<rect width="66.795" height="7.2" x="1381.11" y="639.114" fill="#b3b3b3"/>
<rect width="33.928" height="7.2" x="1483.72" y="639.114" fill="#b3b3b3"/>
<rect width="80.193" height="7.2" x="1595.08" y="639.114" fill="#b3b3b3"/>
<rect width="77.047" height="7.2" x="1381.11" y="664.319" fill="#b3b3b3"/>
<rect width="83.005" height="7.2" x="1483.72" y="664.319" fill="#b3b3b3"/>
<rect width="54.318" height="7.2" x="1741.86" y="613.909" fill="#b3b3b3"/>
<rect width="81.402" height="7.2" x="1741.86" y="639.114" fill="#b3b3b3"/>
<rect width="63.302" height="7.2" x="1741.86" y="664.319" fill="#b3b3b3"/>
<rect width="67.385" height="7.2" x="1595.08" y="664.319" fill="#b3b3b3"/>
<rect width="465.697" height="25.205" x="1372.33" y="680.834" fill="#f2f2f2"/>
<rect width="77.047" height="7.2" x="1381.11" y="689.836" fill="#b3b3b3"/>
<rect width="83.005" height="7.2" x="1483.72" y="689.836" fill="#b3b3b3"/>
<rect width="63.302" height="7.2" x="1741.86" y="689.836" fill="#b3b3b3"/>
<rect width="67.385" height="7.2" x="1595.08" y="689.836" fill="#b3b3b3"/>
<rect width="465.697" height="25.205" x="1372.33" y="706.038" fill="#e6e6e6"/>
<rect width="465.697" height="25.205" x="1372.33" y="731.243" fill="#f2f2f2"/>
<rect width="465.697" height="25.205" x="1372.33" y="756.448" fill="#e6e6e6"/>
<rect width="54.771" height="7.2" x="1381.11" y="715.041" fill="#b3b3b3"/>
<rect width="88.59" height="7.2" x="1483.72" y="715.041" fill="#b3b3b3"/>
<rect width="112.533" height="7.2" x="1595.08" y="715.041" fill="#b3b3b3"/>
<rect width="66.795" height="7.2" x="1381.11" y="740.245" fill="#b3b3b3"/>
<rect width="33.928" height="7.2" x="1483.72" y="740.245" fill="#b3b3b3"/>
<rect width="80.193" height="7.2" x="1595.08" y="740.245" fill="#b3b3b3"/>
<rect width="77.047" height="7.2" x="1381.11" y="765.45" fill="#b3b3b3"/>
<rect width="83.005" height="7.2" x="1483.72" y="765.45" fill="#b3b3b3"/>
<rect width="54.318" height="7.2" x="1741.86" y="715.041" fill="#b3b3b3"/>
<rect width="81.402" height="7.2" x="1741.86" y="740.245" fill="#b3b3b3"/>
<rect width="63.302" height="7.2" x="1741.86" y="765.45" fill="#b3b3b3"/>
<rect width="67.385" height="7.2" x="1595.08" y="765.45" fill="#b3b3b3"/>
<path fill="none" stroke="#ccc" stroke-width=".77" d="M1477.02 479v302.5"/>
<path fill="none" stroke="#ccc" stroke-width=".77" d="M1589.62 479v302.5"/>
<path fill="none" stroke="#ccc" stroke-width=".77" d="M1735.15 479v302.5"/>
</g>
<path id="csv_big" fill="#0f3344" d="M1329.48 504.533h-5.406l-6.555-20.467h5.069l2.487 8.653c.726 2.407 1.335 4.848 1.823 7.314h.095c.516-2.456 1.159-4.89 1.844-7.23l2.614-8.747h4.922l-6.893 20.467v.01zm3.056 17.895h-45.213v-13.206h45.213v13.206zm-48.691-27.823c0-6.987 4.974-10.876 11.171-10.876 2.392 0 4.216.485 5.038.917l-.949 3.668c-1.23-.508-2.548-.766-3.878-.759-3.678 0-6.534 2.213-6.534 6.777 0 4.089 2.424 6.671 6.566 6.671 1.391 0 2.951-.295 3.857-.664l.696 3.615c-.843.422-2.761.875-5.248.875-7.082 0-10.729-4.405-10.729-10.223m24.113 1.327c-3.404-1.18-5.617-3.056-5.617-6.039 0-3.488 2.919-6.165 7.746-6.165 2.308 0 4.005.485 5.217 1.033l-1.033 3.741c-1.333-.648-2.797-.983-4.279-.98-2.002 0-2.972.917-2.972 1.981 0 1.296 1.159 1.876 3.794 2.877 3.615 1.338 5.312 3.225 5.312 6.113 0 3.425-2.635 6.334-8.263 6.334-2.329 0-4.637-.601-5.797-1.244l.949-3.826c1.244.632 3.162 1.275 5.122 1.275 2.129 0 3.256-.875 3.256-2.213.001-1.275-.969-2.002-3.435-2.887m-20.635-37.182h31.754v14.017c0 .769.611 1.37 1.37 1.37h12.099v6.871h-45.213V458.75l-.01.001zm49.639 22.258h-1.665v-8.094l-.021-.158c0-.316-.105-.632-.316-.885l-13.49-15.387v-.011c-.081-.089-.173-.167-.274-.232l-.095-.053c-.088-.043-.18-.078-.274-.105l-.074-.032c-.095-.021-.211-.042-.316-.042h-33.114c-1.511.006-2.734 1.229-2.74 2.74v22.259h-1.676c-2.16.012-3.909 1.76-3.921 3.921v20.372c.012 2.16 1.76 3.909 3.921 3.921h1.686v13.943c0 1.507 1.233 2.74 2.74 2.74h45.213c1.507 0 2.74-1.233 2.74-2.74v-13.943h1.686c2.156-.017 3.898-1.764 3.91-3.921V484.93c-.011-2.156-1.754-3.903-3.91-3.921"/>
<g id="monitor">
<path fill="url(#lnr1)" d="M210.849 848.552s-7.153 24.361-10.209 36.821c-3.056 12.46.027 28.605 14.125 29.37 14.098.765 81.676 2.731 90.186 2.812 8.509.081 128.844 1.225 128.844 1.225s-114.45-5.005-125.786-5.477c-11.335-.472-18.846-13.046-17.277-26.669 1.569-13.623 4.869-41.834 4.869-41.834l-84.752 3.752z"/>
<path fill="url(#lnr2)" d="M210.849 848.552s-7.153 24.361-10.209 36.821c-3.056 12.46.027 28.605 14.125 29.37 14.098.765 81.676 2.731 90.186 2.812 8.509.081 128.844 1.225 128.844 1.225 2.491 0 2.727 3.253-.322 3.253s-119.314.718-127.41.718c-8.097 0-89.086-.731-97.421-.731-9.348 0-20.686-12.805-13.658-38.572 7.027-25.767 9.441-34.896 9.441-34.896h6.424z"/>
<path fill="url(#lnr3)" d="M56.45 858.231c155.355-5.064 310.577-13.26 465.877-19.676 5.444-.223 9.894-4.943 9.895-10.551.034-134.647.065-269.294.098-403.941.002-8.05-4.742-14.503-11.753-15.961-153.753-32.072-309.428-53.803-463.187-85.745-10.885-1.969-18.408 7.865-18.38 17.903v501.509c0 9.439 7.775 16.771 17.45 16.462z"/>
<path fill="url(#lnr4)" d="M59.868 858.072c154.237-5.06 308.345-13.167 462.53-19.52 5.406-.221 9.824-4.939 9.825-10.547.034-134.647.065-269.294.098-403.941.002-8.05-4.709-14.507-11.67-15.972-154.136-32.144-310.208-53.879-464.335-85.959-7.148-1.507-14.275 5.475-14.267 13.874.161 168.534.318 337.068.478 505.602.01 9.44 7.736 16.772 17.341 16.463z"/>
<path d="M42.476 787.618c163.256.458 326.492-2.547 489.744-2.978.034-120.049.066-240.097.1-360.145.002-8.307-4.858-14.97-12.041-16.481-153.66-32.03-309.236-53.744-462.899-85.656-7.686-1.616-15.338 5.88-15.329 14.899.142 150.12.283 300.24.425 450.361z"/>
<path fill="url(#lnr5)" d="M519.565 407.863c-12.278-2.579-24.568-5.098-36.869-7.562-36.622 128.318-71.325 257.176-108.443 385.354 52.655-.477 105.31-.877 157.967-1.016.034-119.773.066-239.547.1-359.32.002-8.8-5.145-15.857-12.755-17.456z"/>
<path fill="#0f3344" d="M70.428 757.797c149.604 2.178 299.231 1.894 448.837 3.904-.12-110.459-.23-220.918-.345-331.377-149.726-29.859-301.018-50.598-451.035-78.784.875 135.419 1.712 270.838 2.543 406.257z"/>
</g>
<g id="browser">
<path fill="#fafafa" d="M403.594 79.43c-.215 93.83-.432 187.659-.662 281.489-.011 4.303-3.108 7.731-6.907 7.661-129.773-2.393-259.539-5.178-389.313-7.494-3.628-.064-6.572-4.249-6.574-9.345C.095 241.843.051 131.944.008 22.046 134.577 40.885 269.086 60.145 403.594 79.43z"/>
<path fill="#f1f1f1" d="M.006 23.047C.004 17.142.003 14.19 0 8.287-.002 3.196 2.954-.491 6.605.053 136.76 19.454 266.874 39.127 396.974 58.894c3.679.559 6.656 4.515 6.646 8.839-.011 5.014-.017 7.524-.029 12.549C269.085 61.047 134.577 41.834.006 23.047z"/>
<path fill="#979797" d="M390.277 68.12c-.009 2.32 1.578 4.436 3.543 4.722 1.964.286 3.562-1.36 3.569-3.673.007-2.315-1.579-4.43-3.541-4.723-1.963-.294-3.563 1.351-3.571 3.674z"/>
<path fill="#ccc" d="M378.955 66.45c-.011 2.331 1.57 4.455 3.534 4.741 1.96.286 3.56-1.37 3.569-3.694.01-2.326-1.573-4.45-3.532-4.742-1.961-.293-3.56 1.361-3.571 3.695z"/>
<path fill="#b7b7b7" d="M367.649 64.782c-.013 2.342 1.564 4.475 3.526 4.761 1.958.285 3.557-1.379 3.569-3.714.012-2.337-1.567-4.469-3.523-4.762-1.961-.293-3.559 1.37-3.572 3.715z"/>
<path fill="#0f3344" d="M.974 26.535C135.27 45.111 269.504 64.13 403.737 83.158l-.126 55.287C269.418 122.622 135.248 106.616.999 91.279.991 69.698.982 48.116.974 26.535z"/>
<path fill="#e4e4e4" d="M148.999 132.596c35.465 3.835 70.927 7.694 106.388 11.563-.275 31.502-.549 63.004-.824 94.506-35.361-2.551-70.721-5.103-106.083-7.639.173-32.809.346-65.619.519-98.43z"/>
<path fill="#e4e4e4" d="M268.295 145.569c35.861 3.917 71.722 7.836 107.585 11.741-.149 30.008-.297 60.015-.447 90.023-35.99-2.558-71.978-5.143-107.966-7.737.276-31.342.552-62.685.828-94.027z"/>
<path fill="#e4e4e4" d="M29.839 119.855c35.444 3.75 70.884 7.538 106.322 11.355-.154 32.967-.308 65.935-.462 98.902-35.293-2.52-70.587-5.015-105.884-7.472.007-34.262.016-68.523.024-102.785z"/>
<path fill="#fff" d="M332.55 116.949c14.204 1.757 28.408 3.514 42.613 5.27.013-2.638.02-3.956.033-6.592-14.198-1.794-28.396-3.59-42.594-5.385-.021 2.682-.031 4.023-.052 6.707z"/>
<path fill="#929292" d="M294.333 260.949c26.701 1.709 53.403 3.41 80.105 5.096.008-1.651.013-2.476.021-4.127-26.697-1.732-53.393-3.479-80.089-5.235-.015 1.706-.022 2.56-.037 4.266z"/>
<path fill="#8f8f8f" d="M303.307 172.916c20.164 2.012 40.328 4.022 60.493 6.027.01-1.662.015-2.493.024-4.155-20.161-2.04-40.321-4.084-60.481-6.13-.014 1.704-.021 2.555-.036 4.258z"/>
<path fill="#919191" d="M300.83 302.159c19.58.924 39.16 1.841 58.741 2.749.016-2.647.025-3.97.041-6.619-19.575-.963-39.149-1.935-58.723-2.914-.024 2.714-.035 4.071-.059 6.784z"/>
<path fill="#8f8f8f" d="M370.04 305.392c1.678.078 2.517.116 4.197.194.013-2.63.02-3.946.034-6.578-1.679-.082-2.518-.123-4.195-.205-.015 2.636-.022 3.954-.036 6.589z"/>
<path fill="#919191" d="M279.491 315.686c26.664 1.1 53.329 2.191 79.994 3.269.008-1.321.012-1.981.02-3.303-26.662-1.116-53.323-2.245-79.984-3.383-.012 1.367-.018 2.05-.03 3.417z"/>
<path fill="silver" d="M370.664 319.405c1.68.067 2.521.101 4.203.169.007-1.312.01-1.968.017-3.281-1.682-.07-2.522-.105-4.202-.174-.008 1.314-.011 1.971-.018 3.286z"/>
<path fill="#919191" d="M317.764 333.213c13.874.473 27.748.942 41.623 1.408.012-1.976.018-2.965.031-4.943-13.871-.496-27.742-.994-41.612-1.497-.017 2.013-.025 3.02-.042 5.032z"/>
<path fill="#c4c4c4" d="M155.866 295.275c32.626 1.548 65.252 3.103 97.878 4.654.024-2.766.036-4.15.06-6.918-32.633-1.643-65.265-3.291-97.898-4.93-.016 2.878-.024 4.317-.04 7.194z"/>
<path fill="#c4c4c4" d="M173.926 311.304c26.563 1.103 53.126 2.208 79.689 3.31.012-1.381.018-2.072.03-3.453-26.565-1.14-53.131-2.284-79.696-3.424-.009 1.427-.014 2.141-.023 3.567z"/>
<path fill="#c4c4c4" d="M148.972 327.375c34.833 1.205 69.666 2.418 104.499 3.626.018-2.068.027-3.102.045-5.171-34.839-1.283-69.677-2.572-104.516-3.853-.011 2.16-.016 3.239-.028 5.398z"/>
<path fill="#c4c4c4" d="M294.896 196.026c22.922 2.068 45.844 4.133 68.767 6.191.01-1.663.015-2.494.024-4.156-22.919-2.097-45.837-4.201-68.755-6.308-.013 1.709-.021 2.564-.036 4.273z"/>
<path fill="#c4c4c4" d="M306.361 216.643c19.063 1.568 38.126 3.133 57.19 4.692.016-2.659.023-3.989.039-6.649-19.058-1.612-38.115-3.228-57.171-4.849-.023 2.723-.035 4.084-.058 6.806z"/>
<path fill="#c4c4c4" d="M287.104 227.065c25.459 1.975 50.919 3.945 76.379 5.903.008-1.329.012-1.994.019-3.323-25.457-1.994-50.913-3.998-76.368-6.008-.012 1.371-.018 2.057-.03 3.428z"/>
<path fill="#c4c4c4" d="M174.736 185.189c23.931 2.151 47.861 4.309 71.79 6.469.015-1.742.022-2.614.037-4.356-23.933-2.201-47.866-4.4-71.799-6.591-.011 1.791-.016 2.687-.028 4.478z"/>
<path fill="#c4c4c4" d="M186.087 206.73c20.089 1.651 40.179 3.308 60.268 4.965l.06-6.97c-20.093-1.712-40.185-3.424-60.278-5.129-.021 2.854-.031 4.281-.05 7.134z"/>
<path fill="#c4c4c4" d="M167.1 217.75c26.383 2.042 52.766 4.09 79.149 6.141.012-1.394.018-2.09.03-3.484-26.385-2.087-52.771-4.172-79.157-6.249-.008 1.437-.013 2.156-.022 3.592z"/>
<path fill="#c4c4c4" d="M54.46 174.497c22.307 1.96 44.613 3.933 66.918 5.918.007-1.827.011-2.741.018-4.568-22.309-2.022-44.62-4.032-66.931-6.03-.002 1.873-.003 2.809-.005 4.68z"/>
<path fill="#c4c4c4" d="M67.96 197.111c17.779 1.432 35.557 2.871 53.334 4.316.012-2.924.017-4.385.029-7.309-17.783-1.493-35.567-2.98-53.351-4.46-.005 2.982-.008 4.472-.012 7.453z"/>
<path fill="#c4c4c4" d="M49.69 208.773c23.852 1.8 47.703 3.616 71.553 5.444.006-1.462.009-2.193.015-3.654-23.854-1.86-47.708-3.708-71.564-5.54-.002 1.5-.003 2.25-.004 3.75z"/>
<path fill="#c4c4c4" d="M131.004 294.1c2.687.127 4.031.19 6.718.317l.035-7.245c-2.688-.135-4.032-.202-6.721-.336-.013 2.906-.019 4.359-.032 7.264z"/>
<path fill="#c4c4c4" d="M130.935 309.526c2.685.111 4.028.166 6.714.277.007-1.447.01-2.171.017-3.619-2.686-.115-4.029-.172-6.715-.286-.007 1.451-.01 2.177-.016 3.628z"/>
<path fill="#c4c4c4" d="M130.858 326.75c2.683.092 4.025.138 6.708.231.01-2.169.016-3.253.026-5.422l-6.71-.245c-.01 2.174-.015 3.262-.024 5.436z"/>
<path fill="#5b5b5b" d="M370.584 334.175c1.682.057 2.524.085 4.208.142.008-1.636.012-2.455.021-4.092-1.684-.06-2.525-.089-4.206-.149-.01 1.64-.014 2.46-.023 4.099z"/>
<path fill="silver" d="M183.016 160.925c21.241 2.11 42.481 4.226 63.72 6.344.015-1.742.022-2.612.037-4.354-21.242-2.155-42.485-4.306-63.728-6.452-.011 1.785-.017 2.677-.029 4.462z"/>
<path fill="#929292" d="M65.326 149.347c18.719 1.823 37.436 3.655 56.154 5.494.007-1.826.011-2.739.018-4.565-18.721-1.871-37.442-3.734-56.165-5.588-.003 1.863-.004 2.795-.007 4.659z"/>
<path fill="#c4c4c4" d="M331.321 277.596c14.349.827 28.697 1.651 43.046 2.471.007-1.319.01-1.978.017-3.298-14.346-.84-28.692-1.684-43.037-2.531-.011 1.344-.016 2.015-.026 3.358z"/>
<path fill="#fff" d="M359.463 97.888c6.318.84 9.48 1.261 15.811 2.103.007-1.316.01-1.973.017-3.288-6.33-.85-9.491-1.275-15.807-2.124-.008 1.323-.012 1.984-.021 3.309z"/>
<path fill="#e4e4e4" d="M281.299 110.608c15.029 1.859 30.057 3.719 45.086 5.578.021-2.691.032-4.036.053-6.725-15.026-1.901-30.053-3.801-45.079-5.701-.024 2.739-.036 4.108-.06 6.848z"/>
<path fill="#e4e4e4" d="M227.553 103.97c14.963 1.846 29.926 3.693 44.888 5.542.024-2.749.036-4.124.061-6.871-14.963-1.89-29.927-3.779-44.891-5.665-.024 2.797-.035 4.196-.058 6.994z"/>
<path fill="#e4e4e4" d="M175.3 97.543c14.022 1.721 28.045 3.445 42.066 5.172.022-2.81.034-4.214.056-7.022-14.025-1.765-28.051-3.527-42.076-5.287-.019 2.854-.028 4.282-.046 7.137z"/>
<path fill="#e4e4e4" d="M120.378 90.829c15.143 1.846 30.286 3.696 45.428 5.55.017-2.866.026-4.299.043-7.163-15.147-1.896-30.295-3.788-45.443-5.675-.011 2.914-.017 4.372-.028 7.288z"/>
<path fill="#e4e4e4" d="M69.495 84.654c15.153 1.833 30.306 3.671 45.458 5.514.011-2.922.016-4.382.027-7.303-15.157-1.884-30.314-3.764-45.472-5.64-.006 2.972-.008 4.457-.013 7.429z"/>
<path fill="#5b5b5b" d="M13.084 48.48c1.634.213 2.451.32 4.085.534 0-3.028 0-4.541-.001-7.568-1.634-.218-2.451-.327-4.085-.546 0 3.032 0 4.548.001 7.58z"/>
<path fill="#5b5b5b" d="M27.378 50.349c3.266.428 4.899.641 8.165 1.069.001-3.007.002-4.51.003-7.515-3.266-.437-4.9-.656-8.167-1.093-.001 3.016-.001 4.523-.001 7.539z"/>
<path fill="#5b5b5b" d="M40.985 52.132c3.537.464 5.305.696 8.842 1.16.003-2.99.004-4.485.007-7.474-3.537-.474-5.306-.711-8.844-1.185-.002 2.998-.003 4.498-.005 7.499z"/>
<path fill="#5b5b5b" d="M54.587 53.916c4.896.643 7.343.965 12.237 1.608.005-2.971.007-4.456.011-7.426-4.895-.658-7.343-.986-12.24-1.643-.004 2.984-.005 4.477-.008 7.461z"/>
<path fill="#5b5b5b" d="M69.542 55.882c10.871 1.431 21.741 2.865 32.612 4.299.009-2.931.014-4.396.023-7.326-10.874-1.466-21.748-2.93-32.622-4.392-.005 2.968-.008 4.452-.013 7.419z"/>
</g>
<g id="shadows" opacity=".1">
<path d="M67.885 757.968c81.548 1.712 163.096 3.389 244.649 4.853.135-32.663.269-65.326.411-97.989-81.625-6.405-163.266-12.618-244.909-18.793-.051 37.309-.101 74.619-.151 111.929z"/>
<path opacity=".7" d="M568.909,447.709l-123.659,-20.236l0,111.082l123.659,13.738l0,-104.584Z"/>
<path d="M79.09 424.811l190.41 27.545-.529-88.987-189.705-36.504-.176 97.946z"/>
</g>
<g id="block3">
<path fill="#f1f1f1" d="M0 111.929c81.548 1.712 163.096 3.389 244.649 4.853.135-32.663.269-65.326.411-97.989C163.435 12.388 81.794 6.175.151 0 .101 37.309.051 74.619 0 111.929z"/>
<path fill="#cdcdcd" d="M85.791 32.896c48.422 2.954 96.841 5.962 145.257 9.033.006-2.966.008-4.445.014-7.394-48.423-3.286-96.849-6.506-145.28-9.673.004 3.207.006 4.815.009 8.034z"/>
<path fill="#cdcdcd" d="M31.062 45.285c66.658 3.48 133.311 7.057 199.959 10.727.004-2.24.006-3.358.01-5.591-66.648-3.89-133.303-7.675-199.963-11.359-.002 2.488-.003 3.733-.006 6.223z"/>
<path fill="#cdcdcd" d="M44.511 60.516c62.304 2.834 124.606 5.734 186.905 8.68.004-2.267.006-3.4.011-5.664-62.301-3.155-124.604-6.248-186.912-9.265-.001 2.498-.002 3.748-.004 6.249z"/>
<path fill="#cdcdcd" d="M34.327 74.087c65.69 2.558 131.378 5.162 197.066 7.773.004-2.251.006-3.377.011-5.628-65.688-2.832-131.378-5.636-197.07-8.381-.003 2.495-.005 3.742-.007 6.236z"/>
<path fill="#cdcdcd" d="M161.966 93.345c23.133.736 46.267 1.469 69.401 2.197.004-2.244.006-3.367.01-5.614-23.143-.807-46.287-1.618-69.43-2.429.008 2.34.012 3.509.019 5.846z"/>
</g>
<g id="block2">
<path fill="#f1f1f1" d="M0 111.082l174.14 19.346-.642-102.036L0 0v111.082z"/>
<path fill="#cdcdcd" d="M30.917 32.298l63.715 9.591-.026-7.996-63.697-9.84.008 8.245z"/>
<path fill="#cdcdcd" d="M21.964 46.612l72.718 10.401-.02-5.99-72.703-10.615.005 6.204z"/>
<path fill="#cdcdcd" d="M31.514 62.458l63.514 8.643-.02-6.038-63.501-8.831.007 6.226z"/>
<path fill="#cdcdcd" d="M24.321 75.428l70.752 9.155-.02-5.989-70.737-9.363.005 6.197z"/>
<path fill="#cdcdcd" d="M79.303 97.225l15.818 1.933-.02-5.985-15.815-1.979.017 6.031z"/>
<path fill="#9e9e9e" d="M165.088 113.018l-.403-67.889-64.105-9.89.247 70.101 64.261 7.678z"/>
<path fill="#fff" d="M146.908 84.522c-1.409 1.274-3.049 2.208-4.918 2.8-1.87.592-3.766.739-5.686.441-2.178-.338-4.195-1.099-6.052-2.283-1.857-1.184-3.438-2.678-4.745-4.483-1.306-1.805-2.216-3.778-2.728-5.921l-3.842-.596v-2.525l3.42.531c-.052-.605-.076-1.084-.076-1.438 0-.407.012-.704.038-.89l-3.381-.525v-2.525l3.727.578c.486-2.042 1.389-3.789 2.709-5.24 1.319-1.451 2.939-2.497 4.861-3.135 1.921-.638 4.008-.783 6.263-.433 1.921.298 3.804.997 5.648 2.098 1.844 1.101 3.42 2.459 4.726 4.073l-2.997 3.526c-.974-1.291-2.107-2.369-3.401-3.236-1.294-.866-2.593-1.4-3.9-1.603-1.947-.302-3.689-.008-5.226.879-1.537.888-2.612 2.195-3.227 3.918l9.798 1.521v2.525l-10.336-1.604c-.026.186-.039.456-.039.809 0 .516.039 1.024.115 1.525l10.259 1.592v2.525l-9.567-1.485c.717 1.767 1.812 3.261 3.285 4.48 1.473 1.22 3.118 1.97 4.937 2.253 1.281.199 2.561.106 3.842-.279 1.281-.385 2.433-1.028 3.458-1.927l3.035 4.054z"/>
</g>
<g id="block1">
<path fill="#f1f1f1" d="M0 110.409l190.41 27.544-.662-101.448L.043 0 0 110.409z"/>
<path fill="#cdcdcd" d="M33.838 33.579l69.667 12.575-.026-7.948-69.647-12.823.006 8.196z"/>
<path fill="#cdcdcd" d="M24.042 47.378l79.512 13.811-.02-5.955-79.495-14.022.003 6.166z"/>
<path fill="#cdcdcd" d="M34.479 63.585l69.448 11.623-.02-6.002-69.433-11.81.005 6.189z"/>
<path fill="#cdcdcd" d="M26.608 76.132l77.362 12.479-.019-5.954-77.346-12.684.003 6.159z"/>
<path fill="#cdcdcd" d="M86.721 100.423l17.296 2.677-.019-5.95-17.293-2.722.016 5.995z"/>
<path fill="#4e6670" d="M180.519 120.217l-.415-67.497-70.093-12.891.243 69.687 70.265 10.701z"/>
<path fill="none" stroke="#fff" stroke-width="2" d="M123.697 89.772l8.186 8.501 17.814-33.501 12 13 9-16"/>
</g>
<g id="icon1">
<path fill="#ebebeb" d="M65.17 60.271H2.831C1.274 60.271 0 58.997 0 57.44V2.831C0 1.274 1.274 0 2.831 0H65.17c1.557 0 2.831 1.274 2.831 2.831V57.44c0 1.557-1.274 2.831-2.831 2.831z"/>
<path fill="#f5f5f5" d="M.916 59.212V3.005c0-1.117.861-2.031 1.914-2.031h64.172c.108 0 .213.012.316.03C66.813.392 66.075.002 65.253.002H2.748C1.237.002.001 1.314.001 2.918v54.438c0 .872.368 1.656.944 2.192-.017-.11-.029-.222-.029-.336z"/>
<path fill="#fff" fill-opacity=".3" d="M65.253.001H2.748C1.237.001.001 1.313.001 2.917v30.724c23.884-.194 48.297-6.278 68-21.032V2.917c0-1.604-1.237-2.916-2.748-2.916z"/>
<rect width="49.687" height="41.111" x="9.157" y="10.875" fill="none" stroke="#484751" stroke-width="1.83"/>
<path fill="none" stroke="#484751" stroke-width="1.83" d="M9.157 17.679h46.18"/>
<path fill="none" stroke="#484751" stroke-width="1.83" d="M12.275 14.308h1.791"/>
<path fill="none" stroke="#484751" stroke-width="1.83" d="M15.857 14.308h1.791"/>
<path fill="none" stroke="#484751" stroke-width="1.83" d="M19.44 14.308h1.791"/>
<path fill="none" stroke="#484751" stroke-linecap="square" stroke-width="1.83" d="M29.358 28.391h14.08l-3.135 7.826H28.327l-4.21-10.956h-2.698"/>
<path fill="none" stroke="#484751" stroke-linecap="square" stroke-width="1.83" d="M41.01 40.157H27.905c-.525 0-.856-.51-.664-1.02l1.086-2.919"/>
<path fill="#484751" d="M40.909 43.2c0 .765-.62 1.385-1.385 1.385s-1.385-.62-1.385-1.385.62-1.385 1.385-1.385 1.385.62 1.385 1.385z"/>
<path fill="#484751" d="M30.455 43.2c0 .765-.62 1.385-1.385 1.385s-1.385-.62-1.385-1.385.62-1.385 1.385-1.385 1.385.62 1.385 1.385z"/>
</g>
<g id="icon2">
<path fill="#ebebeb" d="M65.17 60.271H2.831C1.274 60.271 0 58.997 0 57.44V2.831C0 1.274 1.274 0 2.831 0H65.17c1.557 0 2.831 1.274 2.831 2.831V57.44c-.001 1.557-1.275 2.831-2.831 2.831z"/>
<path fill="#f5f5f5" d="M.916 59.212V3.005c0-1.117.861-2.031 1.914-2.031h64.172c.108 0 .213.012.316.03C66.813.392 66.075.002 65.253.002H2.748C1.237.002.001 1.314.001 2.918v54.438c0 .872.367 1.656.944 2.192-.018-.11-.029-.222-.029-.336z"/>
<path fill="#fff" fill-opacity=".3" d="M65.253.001H2.748C1.237.001.001 1.313.001 2.917v30.724c23.884-.194 48.297-6.278 68-21.032V2.917C68 1.313 66.764.001 65.253.001z"/>
<rect width="49.71" height="41.13" x="9.032" y="10.866" fill="none" stroke="#484751" stroke-width="1.84"/>
<path fill="none" stroke="#484751" stroke-width="1.84" d="M9.032 17.672h46.201"/>
<path fill="none" stroke="#484751" stroke-width="1.84" d="M12.151 14.3h1.792"/>
<path fill="none" stroke="#484751" stroke-width="1.84" d="M15.735 14.3h1.792"/>
<path fill="none" stroke="#484751" stroke-width="1.84" d="M19.319 14.3h1.792"/>
<path fill="none" stroke="#484751" stroke-linecap="square" stroke-width="1.84" d="M54.261 25.974V22.58h-3.394"/>
<path fill="none" stroke="#484751" stroke-width="1.84" d="M13.504 45.862l16.944-16.944 8.765 8.765 14.131-14.131"/>
<path fill="none" stroke="#484751" stroke-linecap="square" stroke-width="1.84" d="M17.177 47.315v.868"/>
<path fill="none" stroke="#484751" stroke-linecap="square" stroke-width="1.84" d="M21.601 43.66v4.523"/>
<path fill="none" stroke="#484751" stroke-linecap="square" stroke-width="1.84" d="M26.024 39.147v9.036"/>
<path fill="none" stroke="#484751" stroke-linecap="square" stroke-width="1.84" d="M30.448 35.316v12.867"/>
<path fill="none" stroke="#484751" stroke-linecap="square" stroke-width="1.84" d="M34.871 39.147v9.036"/>
<path fill="none" stroke="#484751" stroke-linecap="square" stroke-width="1.84" d="M39.294 42.03v6.153"/>
<path fill="none" stroke="#484751" stroke-linecap="square" stroke-width="1.84" d="M43.718 39.147v9.036"/>
<path fill="none" stroke="#484751" stroke-linecap="square" stroke-width="1.84" d="M48.141 35.316v12.867"/>
<path fill="none" stroke="#484751" stroke-linecap="square" stroke-width="1.84" d="M52.564 30.506v17.677"/>
</g>
<g id="icon3">
<path fill="#ebebeb" d="M65.17 60.271H2.831C1.274 60.271 0 58.997 0 57.44V2.831C0 1.274 1.274 0 2.831 0H65.17c1.557 0 2.831 1.274 2.831 2.831V57.44c0 1.557-1.274 2.831-2.831 2.831z"/>
<path fill="#f5f5f5" d="M.917 59.212V3.005c0-1.117.861-2.031 1.914-2.031h64.172c.108 0 .213.012.316.03C66.814.392 66.076.002 65.254.002H2.749C1.238.002.002 1.314.002 2.918v54.438c0 .872.368 1.656.944 2.192-.018-.11-.029-.222-.029-.336z"/>
<path fill="#fff" fill-opacity=".3" d="M65.253.001H2.748C1.237.001.001 1.313.001 2.917v30.724c23.884-.194 48.297-6.278 68-21.032V2.917c0-1.604-1.236-2.916-2.748-2.916z"/>
<rect width="49.831" height="41.231" x="9.085" y="10.815" fill="none" stroke="#484751" stroke-width="1.84"/>
<path fill="none" stroke="#484751" stroke-width="1.84" d="M9.085 17.639H55.4"/>
<path fill="none" stroke="#484751" stroke-width="1.84" d="M12.212 14.258h1.797"/>
<path fill="none" stroke="#484751" stroke-width="1.84" d="M15.805 14.258h1.796"/>
<path fill="none" stroke="#484751" stroke-width="1.84" d="M19.397 14.258h1.797"/>
<path fill="none" stroke="#484751" stroke-linecap="square" stroke-width="1.84" d="M50.657 32.113h-36.97V22.101h40.628v10.012"/>
<rect width="10.148" height="4.633" x="13.687" y="36.451" fill="none" stroke="#484751" stroke-linecap="square" stroke-width="1.84"/>
<rect width="10.148" height="4.633" x="28.927" y="36.451" fill="none" stroke="#484751" stroke-linecap="square" stroke-width="1.84"/>
<rect width="10.148" height="4.633" x="44.167" y="36.451" fill="none" stroke="#484751" stroke-linecap="square" stroke-width="1.84"/>
<path fill="none" stroke="#484751" stroke-linecap="square" stroke-width="1.84" d="M13.687 44.431h10.148"/>
<path fill="none" stroke="#484751" stroke-linecap="square" stroke-width="1.84" d="M13.687 47.777h5.207"/>
<path fill="none" stroke="#484751" stroke-linecap="square" stroke-width="1.84" d="M28.927 44.431h10.148"/>
<path fill="none" stroke="#484751" stroke-linecap="square" stroke-width="1.84" d="M28.927 47.777h5.206"/>
<path fill="none" stroke="#484751" stroke-linecap="square" stroke-width="1.84" d="M44.167 44.431h10.148"/>
<path fill="none" stroke="#484751" stroke-linecap="square" stroke-width="1.84" d="M44.167 47.777h5.206"/>
</g>
<g id="result1">
<path fill="#ebebeb" d="M65.17 60.271H2.831C1.274 60.271 0 58.997 0 57.44V2.831C0 1.274 1.274 0 2.831 0H65.17c1.557 0 2.831 1.274 2.831 2.831V57.44c0 1.557-1.274 2.831-2.831 2.831z"/>
<path fill="#f5f5f5" d="M.916 59.212V3.005c0-1.117.861-2.031 1.914-2.031h64.172c.108 0 .213.012.316.03C66.813.392 66.075.002 65.253.002H2.748C1.237.002.001 1.314.001 2.918v54.438c0 .872.367 1.656.944 2.192-.017-.11-.029-.222-.029-.336z"/>
<path fill="#fff" fill-opacity=".3" d="M65.253.001H2.748C1.237.001.001 1.313.001 2.917v30.724c23.884-.194 48.297-6.278 68-21.032V2.917c0-1.604-1.237-2.916-2.748-2.916z"/>
<path fill="#6e6d73" d="M46.761 39.723h-3.274l-3.971-12.397h3.071l1.506 5.241c.44 1.458.809 2.937 1.104 4.43h.058c.312-1.487.702-2.961 1.117-4.379l1.583-5.298h2.981l-4.175 12.397v.006zm1.851 10.839H21.226v-7.999h27.386v7.999zM19.12 33.71c0-4.232 3.012-6.588 6.766-6.588 1.449 0 2.554.294 3.052.555l-.575 2.222c-.745-.308-1.544-.464-2.349-.46-2.228 0-3.958 1.341-3.958 4.105 0 2.477 1.468 4.041 3.977 4.041.843 0 1.788-.179 2.336-.402l.422 2.189c-.511.256-1.672.53-3.179.53-4.289 0-6.498-2.668-6.498-6.192m14.605.804c-2.062-.715-3.402-1.851-3.402-3.658 0-2.113 1.768-3.734 4.692-3.734 1.398 0 2.426.294 3.16.626l-.626 2.266c-.807-.393-1.694-.596-2.592-.594-1.213 0-1.8.555-1.8 1.2 0 .785.702 1.136 2.298 1.743 2.19.81 3.218 1.953 3.218 3.702 0 2.075-1.596 3.837-5.005 3.837-1.411 0-2.809-.364-3.512-.754l.575-2.317c.754.383 1.915.772 3.103.772 1.289 0 1.972-.53 1.972-1.34 0-.773-.587-1.213-2.081-1.749M21.22 11.992h19.234v8.491c0 .466.37.83.83.83h7.328v4.161H21.226V11.992h-.006zm30.067 13.482h-1.008v-4.902l-.013-.096c0-.191-.064-.383-.191-.536l-8.172-9.32v-.007c-.049-.054-.104-.101-.165-.14l-.058-.032c-.053-.026-.109-.048-.166-.064l-.045-.019c-.057-.013-.128-.026-.191-.026H21.22c-.915.004-1.656.745-1.659 1.66v13.482h-1.016c-1.308.008-2.367 1.066-2.375 2.375v12.34c.008 1.308 1.067 2.368 2.375 2.375h1.022v8.445c0 .913.747 1.66 1.659 1.66h27.386c.913 0 1.66-.747 1.66-1.66v-8.445h1.021c1.306-.01 2.361-1.069 2.369-2.375v-12.34c-.007-1.306-1.063-2.364-2.369-2.375"/>
</g>
<g id="result2">
<path fill="#ebebeb" d="M65.17 60.271H2.831C1.274 60.271 0 58.997 0 57.44V2.831C0 1.274 1.274 0 2.831 0H65.17c1.557 0 2.831 1.274 2.831 2.831V57.44c0 1.557-1.274 2.831-2.831 2.831z"/>
<path fill="#f5f5f5" d="M.916 59.212V3.005c0-1.117.861-2.031 1.914-2.031h64.172c.108 0 .213.012.316.03C66.813.392 66.075.002 65.253.002H2.748C1.237.002.001 1.314.001 2.918v54.438c0 .872.367 1.656.944 2.192-.017-.11-.029-.222-.029-.336z"/>
<path fill="#fff" fill-opacity=".3" d="M65.253.001H2.748C1.237.001.001 1.313.001 2.917v30.724c23.884-.194 48.297-6.278 68-21.032V2.917c0-1.604-1.237-2.916-2.748-2.916z"/>
<path fill="#6e6d73" d="M51.341 40.267v10.945c0 .736-.889 1.457-1.8 1.457h-29.25c-.911 0-1.8-.721-1.8-1.457V40.267h32.85zm-11.492 7.411c-.131.437-.357.838-.649 1.18-.277.313-.597.547-.969.707-.382.163-.794.245-1.21.24-.416.005-.828-.077-1.21-.24-.372-.16-.703-.402-.969-.707-.297-.345-.52-.746-.656-1.18-.164-.528-.243-1.079-.233-1.632 0-.619.08-1.166.24-1.632.153-.474.364-.86.649-1.173.546-.63 1.345-.983 2.179-.962.836-.024 1.639.329 2.186.962.27.313.488.7.641 1.166.16.474.233 1.02.233 1.64.001.611-.072 1.165-.232 1.631zm-12.949.299c0 .35-.066.641-.19.874-.124.233-.292.423-.51.568-.211.146-.459.24-.729.299-1.062.207-2.163-.002-3.075-.583l.51-.802c.073.036.16.087.292.138.423.16.86.27 1.312.306.35 0 .634-.073.838-.204.211-.146.321-.364.335-.7v-5.626H26.9v5.73zm5.793.532c-.223.526-.661.932-1.202 1.115-.292.117-.627.168-.998.168-.335 0-.678-.044-1.006-.109-.17-.037-.336-.09-.496-.16-.153-.073-.292-.153-.408-.255l.219-.86c.088.051.204.102.35.153.292.102.598.182.904.248.146.029.292.036.43.036.401 0 .714-.095.933-.284.219-.19.321-.466.321-.838 0-.233-.073-.423-.226-.583-.168-.175-.364-.321-.576-.437l-.743-.386c-.27-.131-.51-.284-.751-.459-.23-.17-.428-.379-.583-.619-.16-.277-.233-.583-.219-.904-.015-.576.233-1.129.663-1.508.197-.175.437-.313.707-.408.27-.087.554-.138.853-.138.306 0 .612.029.926.087.313.058.568.146.758.277l-.138.284-.146.292-.182.321c-.048-.023-.094-.05-.138-.08-.064-.045-.136-.08-.211-.102-.118-.039-.24-.064-.364-.073-.199-.012-.399-.007-.597.015-.133.014-.261.053-.379.117-.117.058-.219.138-.321.233-.087.095-.16.197-.219.313-.051.117-.073.226-.073.335 0 .262.073.481.219.641.16.168.35.306.576.437.219.117.474.24.736.35.27.117.51.262.743.43.527.352.832.955.802 1.589-.004.259-.054.514-.164.762zm14.399 1.246v-7.36h-1.217v5.072l-2.886-5.065h-1.217v7.36h1.217v-5.086l2.886 5.072h1.217v.007zm-8.781-5.851c-.294-.401-.763-.637-1.261-.634-.248 0-.481.044-.707.138-.219.095-.423.248-.598.474-.175.219-.313.51-.408.86-.225.845-.227 1.733-.007 2.58.095.35.226.641.401.86.292.401.765.641 1.261.641.51.015.998-.219 1.304-.619.175-.219.313-.503.415-.86.219-.845.219-1.727 0-2.572-.072-.315-.217-.606-.4-.868zm3.163-33.572c.364 0 .714.146.969.401l8.497 8.497c.335.335.401.751.401 1.312v18.261h-32.85V12.475c0-1.472.933-2.142 1.8-2.142l21.183-.001zM25.792 29.315c.802 0 1.457-.656 1.457-1.457v-2.922c0-1.207.979-2.186 2.186-2.186.402 0 .729.326.729.729 0 .403-.326.729-.729.729-.402 0-.729.326-.729.729v2.915c0 .882-.394 1.661-1.006 2.193.637.549 1.006 1.345 1.013 2.186v2.922c0 .402.326.729.729.729.401 0 .729.328.729.729 0 .408-.328.736-.729.736-1.207 0-2.186-.979-2.186-2.186v-2.922c0-.802-.656-1.457-1.457-1.457h-.007c-.402 0-.729-.326-.729-.729 0-.403.326-.729.729-.729v-.009zm14.596-1.458v-2.922c0-.402-.326-.729-.729-.729-.402 0-.729-.326-.729-.729 0-.403.326-.729.729-.729 1.207 0 2.186.979 2.186 2.186v2.915c0 .809.656 1.465 1.465 1.465.402 0 .729.326.729.729 0 .403-.326.729-.729.729-.802 0-1.457.656-1.457 1.457v2.922c0 1.209-.978 2.189-2.186 2.193-.402 0-.729-.326-.729-.729 0-.403.326-.729.729-.729.402 0 .729-.326.729-.729v-2.922c0-.874.394-1.654 1.006-2.186-.641-.547-1.011-1.348-1.014-2.192zm-5.101 6.566c0 .401-.328.729-.729.729-.408 0-.736-.328-.736-.729v-2.186c0-.402.326-.729.729-.729.403 0 .729.326.729.729v2.186h.007zm-.736-8.03c.598 0 1.093.495 1.093 1.093s-.495 1.093-1.093 1.093c-.604 0-1.093-.489-1.093-1.093 0-.598.496-1.093 1.093-1.093zm14.312-5.837c.335 0 .51-.401.27-.641l-7.374-7.367c-.069-.07-.164-.109-.262-.109-.204 0-.364.168-.372.372v7.746h7.738v-.001z"/>
</g>
<g id="result3">
<path fill="#ebebeb" d="M64.516 59.968H2.802C1.261 59.968 0 58.707 0 57.166V3.105C0 1.564 1.261.303 2.802.303h61.713c1.541 0 2.802 1.261 2.802 2.802v54.061c.001 1.541-1.26 2.802-2.801 2.802z"/>
<path fill="#f5f5f5" d="M.907 58.919V3.276c0-1.106.853-2.011 1.895-2.011H66.33c.107 0 .211.012.313.03-.5-.606-1.231-.992-2.045-.992H2.72C1.224.303 0 1.602 0 3.19v53.891c0 .864.364 1.64.935 2.17-.017-.108-.028-.219-.028-.332z"/>
<path fill="#fff" fill-opacity=".3" d="M65.253 0H2.748C1.237 0 .001 1.312.001 2.916V33.64c23.884-.194 48.297-6.278 68-21.032V2.916C68 1.312 66.764 0 65.253 0z"/>
<path fill="#6e6d73" d="M41.002 27.635c.584 0 1.053.476 1.053 1.053v4.716c0 .584.469 1.053 1.047 1.053h2.256c.435 0 .788.353.788.788v2.514c0 .435-.353.788-.788.788h-2.779c-.289 0-.523.234-.523.523v1.678c0 .292-.238.53-.53.53h-1.678c-.289 0-.523-.234-.523-.523V39.07c0-.285.238-.523.523-.523h1.685c.285 0 .523-.231.523-.523V35.51c0-.584-.476-1.053-1.053-1.053H36.28c-.578 0-1.047-.476-1.047-1.053v-4.716c0-.584.476-1.053 1.047-1.053h4.722z"/>
<rect width="9.446" height="1.577" x="19.487" y="34.981" fill="#6e6d73"/>
<rect width="9.446" height="1.583" x="19.487" y="31.305" fill="#6e6d73"/>
<rect width="9.446" height="1.577" x="19.487" y="27.635" fill="#6e6d73"/>
<path fill="#6e6d73" d="M52.547 15.043H14.764c-.856.014-1.563.72-1.563 1.577v29.907c.007.861.702 1.559 1.563 1.57h37.783c.866-.007 1.566-.71 1.57-1.577v-29.9c-.004-.867-.703-1.569-1.57-1.577zm-3.237 2.491c.03 0 .061.001.091.003.827.057 1.47.741 1.475 1.57 0 .829-.652 1.522-1.475 1.577h-.102c-.866-.004-1.569-.703-1.577-1.57.003-.875.713-1.582 1.588-1.58zm-4.632.003h.102c.869.004 1.573.707 1.577 1.577-.006.874-.72 1.579-1.594 1.573-.028 0-.056-.001-.084-.003-.827-.057-1.469-.741-1.475-1.57-.001-.829.652-1.522 1.474-1.577zm-4.723 0h.102c.869.004 1.573.707 1.577 1.577-.006.874-.719 1.579-1.594 1.573-.028 0-.056-.001-.084-.003-.827-.057-1.469-.741-1.475-1.57-.001-.829.652-1.522 1.474-1.577zm11.016 27.414h-34.63V22.913h34.63v22.038z"/>
</g>
<g id="result4">
<path fill="#ebebeb" d="M65.17 60.271H2.831C1.274 60.271 0 58.997 0 57.44V2.831C0 1.274 1.274 0 2.831 0H65.17c1.557 0 2.831 1.274 2.831 2.831V57.44c0 1.557-1.274 2.831-2.831 2.831z"/>
<path fill="#f5f5f5" d="M.917 59.212V3.005c0-1.117.861-2.031 1.914-2.031h64.172c.108 0 .213.012.316.03C66.814.392 66.076.002 65.254.002H2.749C1.238.002.002 1.314.002 2.918v54.438c0 .872.368 1.656.944 2.192-.018-.11-.029-.222-.029-.336z"/>
<path fill="#fff" fill-opacity=".3" d="M65.253.001H2.748C1.237.001.001 1.313.001 2.917v30.724c23.884-.194 48.297-6.278 68-21.032V2.917c0-1.604-1.236-2.916-2.748-2.916z"/>
<path fill="#6e6d73" d="M35.001 49.981c-8.712 0-15.778-2.359-15.778-5.257v-5.263c0-.455.228-.886.557-1.317 1.76 2.269 7.874 3.952 15.221 3.952s13.461-1.683 15.221-3.952c.329.425.557.862.557 1.317v5.263c0 2.898-7.066 5.257-15.778 5.257z"/>
<path fill="#6e6d73" d="M35.001 39.46c-8.712 0-15.778-2.353-15.778-5.257v-5.257c0-.281.102-.551.245-.82.078-.168.18-.335.311-.497 1.76 2.263 7.874 3.946 15.221 3.946s13.461-1.683 15.221-3.952c.126.168.234.335.311.503.144.269.245.539.245.82v5.257c.002 2.904-7.064 5.257-15.776 5.257z"/>
<path fill="#6e6d73" d="M35.001 13.161c-8.712 0-15.778 2.359-15.778 5.263v5.257c0 2.904 7.066 5.263 15.778 5.263v-.006c8.713 0 15.778-2.353 15.778-5.257v-5.257c0-2.904-7.066-5.263-15.778-5.263zm0 7.892c-5.808 0-10.521-1.174-10.521-2.629s4.713-2.629 10.521-2.629c5.808 0 10.521 1.174 10.521 2.623 0 1.462-4.713 2.635-10.521 2.635z"/>
</g>
<g id="conveyor">
<path fill="#e1e1e1" d="M910.393 733.543H546.755c-12.486 0-22.607 10.122-22.607 22.607s10.121 22.607 22.607 22.607h363.638c12.485 0 22.607-10.122 22.607-22.607s-10.121-22.607-22.607-22.607z"/>
<path fill="#afaeb2" d="M524.148 756.15c0 12.486 10.121 22.607 22.607 22.607h363.638c12.485 0 22.607-10.121 22.607-22.607H524.148z"/>
<path fill="#e1e1e1" d="M908.043 742.497H549.105c-7.541 0-13.654 6.113-13.654 13.654 0 7.541 6.113 13.653 13.654 13.653h358.938c7.541 0 13.654-6.113 13.654-13.653 0-7.541-6.113-13.654-13.654-13.654z"/>
<path fill="#8c8b91" d="M908.043 771.059H549.106c-8.221 0-14.91-6.688-14.91-14.909s6.689-14.909 14.91-14.909h358.938c8.221 0 14.909 6.688 14.909 14.909-.001 8.221-6.689 14.909-14.91 14.909zm-358.937-27.306c-6.836 0-12.398 5.561-12.398 12.397s5.561 12.397 12.398 12.397h358.938c6.836 0 12.397-5.561 12.397-12.397s-5.561-12.397-12.397-12.397H549.106z"/>
<path fill="#b4b3b7" d="M583.863 745.367c5.95-.969 11.567 3.076 12.535 9.026.968 5.951-3.077 11.567-9.027 12.536-5.95.968-11.567-3.077-12.535-9.027-.968-5.95 3.077-11.567 9.027-12.535z"/>
<circle cx="585.64" cy="756.15" r="3.676" fill="#6e6d73"/>
<path fill="#b4b3b7" d="M637.546 745.59c5.838-1.507 11.8 2.009 13.306 7.847 1.507 5.837-2.009 11.8-7.847 13.306-5.837 1.507-11.799-2.01-13.306-7.847-1.507-5.837 2.01-11.8 7.847-13.306z"/>
<circle cx="640.254" cy="756.15" r="3.676" fill="#6e6d73"/>
<path fill="#b4b3b7" d="M693.089 745.369c5.95-.969 11.567 3.076 12.535 9.026.968 5.951-3.076 11.567-9.027 12.536-5.95.968-11.567-3.077-12.535-9.027-.968-5.95 3.077-11.567 9.027-12.535z"/>
<circle cx="694.868" cy="756.15" r="3.676" fill="#6e6d73"/>
<path fill="#b4b3b7" d="M747.782 745.362c5.954-.943 11.554 3.125 12.497 9.08.943 5.954-3.126 11.554-9.081 12.497-5.954.943-11.554-3.126-12.497-9.08-.942-5.955 3.126-11.555 9.081-12.497z"/>
<circle cx="749.482" cy="756.15" r="3.676" fill="#6e6d73"/>
<path fill="#b4b3b7" d="M802.315 745.371c5.95-.969 11.567 3.076 12.535 9.026.968 5.95-3.076 11.567-9.027 12.536-5.95.968-11.567-3.077-12.535-9.027-.968-5.95 3.077-11.567 9.027-12.535z"/>
<circle cx="804.096" cy="756.15" r="3.676" fill="#6e6d73"/>
<path fill="#b4b3b7" d="M857.038 745.371c5.95-.968 11.567 3.077 12.535 9.027.969 5.95-3.076 11.567-9.026 12.535-5.951.969-11.567-3.076-12.536-9.026-.968-5.951 3.077-11.567 9.027-12.536z"/>
<circle cx="858.82" cy="756.15" r="3.676" fill="#6e6d73"/>
<path fill="#e1e1e1" d="M1010.75 733.543h363.638c12.486 0 22.607 10.122 22.607 22.607s-10.121 22.607-22.607 22.607H1010.75c-12.485 0-22.607-10.122-22.607-22.607s10.122-22.607 22.607-22.607z"/>
<path fill="#afaeb2" d="M1397 756.15c0 12.486-10.121 22.607-22.607 22.607h-363.638c-12.485 0-22.607-10.121-22.607-22.607H1397z"/>
<path fill="#e1e1e1" d="M1013.11 742.497h358.938c7.541 0 13.654 6.113 13.654 13.654 0 7.541-6.113 13.653-13.654 13.653H1013.11c-7.541 0-13.654-6.113-13.654-13.653.001-7.541 6.114-13.654 13.654-13.654z"/>
<path fill="#8c8b91" d="M1013.11 771.059h358.938c8.221 0 14.91-6.688 14.91-14.909s-6.689-14.909-14.91-14.909H1013.11c-8.221 0-14.909 6.688-14.909 14.909s6.688 14.909 14.909 14.909zm358.938-27.306c6.836 0 12.398 5.561 12.398 12.397s-5.561 12.397-12.398 12.397H1013.11c-6.836 0-12.397-5.561-12.397-12.397s5.561-12.397 12.397-12.397h358.938z"/>
<path fill="#b4b3b7" d="M1324.69 754.405c.968-5.95 6.585-9.995 12.535-9.027s9.995 6.585 9.027 12.535c-.968 5.951-6.585 9.995-12.535 9.027-5.951-.968-9.995-6.585-9.027-12.535z"/>
<circle cx="1335.51" cy="756.15" r="3.676" fill="#6e6d73"/>
<path fill="#b4b3b7" d="M1270.35 753.391c1.507-5.838 7.469-9.354 13.307-7.847 5.837 1.506 9.353 7.469 7.847 13.306-1.507 5.837-7.469 9.354-13.307 7.847-5.837-1.506-9.353-7.469-7.847-13.306z"/>
<circle cx="1280.89" cy="756.15" r="3.676" fill="#6e6d73"/>
<path fill="#b4b3b7" d="M1215.46 754.403c.968-5.95 6.585-9.995 12.535-9.027s9.995 6.585 9.027 12.535c-.969 5.951-6.585 9.995-12.536 9.027-5.95-.968-9.995-6.585-9.026-12.535z"/>
<circle cx="1226.28" cy="756.15" r="3.676" fill="#6e6d73"/>
<path fill="#b4b3b7" d="M1160.89 754.439c.943-5.954 6.543-10.023 12.497-9.08 5.955.943 10.024 6.543 9.081 12.497-.943 5.955-6.543 10.023-12.497 9.08-5.955-.942-10.023-6.542-9.081-12.497z"/>
<circle cx="1171.67" cy="756.15" r="3.676" fill="#6e6d73"/>
<path fill="#b4b3b7" d="M1106.24 754.401c.968-5.95 6.585-9.995 12.535-9.027 5.95.969 9.995 6.585 9.027 12.536-.969 5.95-6.586 9.995-12.536 9.026-5.95-.968-9.995-6.585-9.026-12.535z"/>
<circle cx="1117.05" cy="756.15" r="3.676" fill="#6e6d73"/>
<path fill="#b4b3b7" d="M1051.52 754.4c.968-5.95 6.585-9.995 12.535-9.026 5.95.968 9.995 6.585 9.027 12.535-.969 5.95-6.586 9.995-12.536 9.027-5.95-.969-9.995-6.585-9.026-12.536z"/>
<circle cx="1062.33" cy="756.15" r="3.676" fill="#6e6d73"/>
<path fill="#b3b3b3" d="M1025.14 838H895.85c-6.6 0-12-5.4-12-12V583c0-6.6 5.4-12 12-12h129.29c6.6 0 12 5.4 12 12v243c0 6.6-5.4 12-12 12z"/>
<path fill="#e1e1e1" d="M1097 828H824c-6.6 0-12-5.4-12-12V592c0-6.6 5.4-12 12-12h273c6.6 0 12 5.4 12 12v224c0 6.6-5.4 12-12 12z"/>
<rect width="192" height="98.692" x="866" y="659.654" fill="#adadad"/>
<path fill="#f5f5f5" d="M816 823.641V592.359c0-4.597 3.762-8.359 8.359-8.359h280.282c.47 0 .929.049 1.379.125-2.204-2.519-5.43-4.125-9.02-4.125H824c-6.6 0-12 5.4-12 12v224c0 3.59 1.605 6.816 4.124 9.02-.075-.45-.124-.908-.124-1.379z"/>
<path fill="#fff" fill-opacity=".3" d="M1097 580H824c-6.6 0-12 5.4-12 12v126.424c104.318-.798 210.943-25.832 297-86.543V592c0-6.6-5.4-12-12-12z"/>
<rect width="180" height="88" x="872" y="665" fill="#0f3344"/>
<rect width="4" height="4" x="883" y="673" fill="#1b994a"/>
<rect width="4" height="4" x="883" y="682" fill="#1b994a"/>
<rect width="4" height="4" x="883" y="691" fill="#1b994a"/>
<rect width="4" height="4" x="883" y="709" fill="#1b994a"/>
<rect width="4" height="4" x="883" y="700" fill="#1b994a"/>
<path fill="#8a8a8a" d="M919.571 828.146c1.425 3.536 3.373 6.847 5.766 9.854h74.202c2.393-3.007 4.341-6.319 5.766-9.854h-85.734z"/>
<circle cx="962.438" cy="812.935" r="40.9" fill="#c9c9c9"/>
<circle cx="962.52" cy="812.935" r="36.053" fill="#e1e1e1"/>
<path fill="#f0f0f0" d="M962.52 776.882c-19.912 0-36.053 16.141-36.053 36.053 23.225 1.329 48.5-3.244 65.661-20.563-6.513-9.359-17.341-15.49-29.608-15.49z"/>
<path fill="none" stroke="#0f3344" stroke-linecap="round" stroke-linejoin="round" stroke-width="2" d="M947.736 788.712v12.246l6.069 6.068"/>
<path fill="none" stroke="#0f3344" stroke-linecap="round" stroke-linejoin="round" stroke-width="2" d="M975.814 788.712v12.246l-8.423 8.424v11.65"/>
<circle cx="967.391" cy="824.597" r="3.565" fill="#f57b00" stroke="#0f3344" stroke-linecap="round" stroke-linejoin="round" stroke-width="2"/>
<circle cx="957.021" cy="824.597" r="3.565" fill="#f57b00" stroke="#0f3344" stroke-linecap="round" stroke-linejoin="round" stroke-width="2"/>
<circle cx="962.186" cy="802.418" r="3.565" fill="#f57b00" stroke="#0f3344" stroke-linecap="round" stroke-linejoin="round" stroke-width="2"/>
<circle cx="962.186" cy="833.833" r="3.565" fill="#f57b00" stroke="#0f3344" stroke-linecap="round" stroke-linejoin="round" stroke-width="2"/>
<path fill="none" stroke="#0f3344" stroke-linecap="round" stroke-linejoin="round" stroke-width="2" d="M962.186 809.386v10.077l-2.63 2.63"/>
<path fill="none" stroke="#0f3344" stroke-linecap="round" stroke-linejoin="round" stroke-width="2" d="M944.311 839.737v-15.14l5.956-5.956h4.181l2.555-2.555v-7.738l3.057-3.058"/>
<path fill="none" stroke="#0f3344" stroke-linecap="round" stroke-linejoin="round" stroke-width="2" d="M970.447 810.18h6.962l8.336-8.335"/>
<path fill="none" stroke="#0f3344" stroke-linecap="round" stroke-linejoin="round" stroke-width="2" d="M953.941 810.18h-6.309l-8.336-8.335"/>
<path fill="none" stroke="#0f3344" stroke-linecap="round" stroke-linejoin="round" stroke-width="2" d="M953.941 814.264h-6.309l-8.336 8.336"/>
<path fill="none" stroke="#0f3344" stroke-linecap="round" stroke-linejoin="round" stroke-width="2" d="M970.956 814.264h6.309l8.336 8.336"/>
<path fill="none" stroke="#0f3344" stroke-linecap="round" stroke-linejoin="round" stroke-width="2" d="M970.956 818.432h3.155l5.95 5.95v15.355"/>
</g>
<g id="indicators" fill="#f57b00">
<path d="M1027 767.073c0-1.605-1.301-2.907-2.907-2.907-1.605 0-2.907 1.301-2.907 2.907 0 1.605 1.301 2.907 2.907 2.907s2.907-1.301 2.907-2.907z"/>
<path d="M1037 767.073c0-1.605-1.301-2.907-2.907-2.907s-2.907 1.301-2.907 2.907c0 1.605 1.301 2.907 2.907 2.907s2.907-1.301 2.907-2.907z"/>
<path d="M1047 767.073c0-1.605-1.301-2.907-2.907-2.907s-2.907 1.301-2.907 2.907c0 1.605 1.301 2.907 2.907 2.907s2.907-1.301 2.907-2.907z"/>
</g>
<g id="lines1" fill="#1b994a">
<rect width="74" height="4" x="890" y="673"/>
<rect width="42" height="4" x="890" y="682"/>
<rect width="42" height="4" x="890" y="691"/>
<rect width="26" height="4" x="890" y="709"/>
<rect width="94" height="4" x="890" y="700"/>
</g>
<g id="lines2" fill="#1b994a">
<rect width="98.951" height="4" x="890" y="673"/>
<rect width="29.593" height="4" x="890" y="682"/>
<rect width="56.072" height="4" x="890" y="691"/>
<rect width="39.699" height="4" x="890" y="709"/>
<rect width="75.657" height="4" x="890" y="700"/>
</g>
<g id="lines3" fill="#1b994a">
<rect width="39.176" height="4" x="890" y="673"/>
<rect width="113.831" height="4" x="890" y="682"/>
<rect width="77.748" height="4" x="890" y="691"/>
<rect width="56.916" height="4" x="890" y="709"/>
<rect width="80.231" height="4" x="890" y="700"/>
</g>
<!-- <g id="logo">
<path fill="#f57b00" d="M897.535 621.938c.116-.022.232-.044.347-.073.265-.067.531-.133.762-.166.498-.132.994-.265 1.425-.397.332-.1.663-.199.961-.298v5.897c-.166.066-.331.165-.497.232-.166.066-.365.165-.53.232l-.497.198-.563.199c-.365.132-.762.265-1.127.364l-.961.298c-.331.1-.629.199-.96.265l-.961.232-.994.199-.961.199-.497.099-.497.066c-.662.1-1.292.232-1.955.298-.29.029-.579.065-.869.101l-.249.031c-.29.036-.58.071-.87.1l-.993.1-.497.033-.464.066-.994.066c-.145.015-.29.023-.435.03l-.124.006c-.145.008-.29.016-.435.031-.663.033-1.325.066-1.988.066-.662 0-1.325.033-1.988 0l-1.988-.033-1.987-.1-1.988-.132c-.663-.066-1.325-.133-1.988-.199s-1.292-.165-1.921-.232v-6.825c.264.034.53.067.828.1.431.066.894.099 1.358.165.464.034.961.1 1.458.133s1.027.066 1.59.099c.53.033 1.093.066 1.657.1.563.033 1.159.033 1.755.033.597 0 1.193.033 1.789.033.597 0 1.226 0 1.856-.033.629-.033 1.259-.033 1.888-.067.63-.033 1.259-.066 1.889-.099 1.259-.066 2.517-.165 3.776-.298.63-.066 1.226-.132 1.856-.199.596-.066 1.192-.165 1.789-.232.298-.033.596-.099.861-.132.298-.066.563-.099.861-.166.298-.033.564-.099.829-.132.256-.064.513-.098.77-.16l.049-.012c.108-.026.216-.047.323-.067l.101-.019z"/>
<path fill="#f57b00" d="M875.321 615.636c.53 0 1.06.033 1.623.033s1.127.033 1.69.033h3.545c1.225-.033 2.451-.033 3.677-.066.63 0 1.226-.033 1.856-.066.596-.033 1.225-.033 1.822-.066 1.226-.067 2.385-.133 3.545-.199 1.159-.066 2.253-.199 3.313-.298.53-.067 1.027-.1 1.524-.166.497-.066.96-.132 1.424-.199.597-.099 1.16-.165 1.69-.265v5.798c-.365.1-.762.232-1.193.332-.464.099-.928.231-1.425.331-.231.066-.497.099-.762.132s-.53.1-.795.133-.53.099-.795.132-.53.066-.828.133c-.265.033-.563.066-.828.132-.298.033-.564.066-.862.1-.596.066-1.159.132-1.789.198-.596.066-1.192.133-1.822.166-1.226.099-2.484.165-3.71.232-.63.033-1.259.066-1.889.066-.629 0-1.259.033-1.855.033-1.226 0-2.452.033-3.611 0-.597 0-1.16 0-1.723-.033-.563 0-1.127 0-1.657-.033-.53 0-1.06-.033-1.557-.033-.497-.033-.994-.033-1.457-.067-.829-.033-1.591-.066-2.253-.132v-6.593c.629.033 1.325.099 2.087.132.961.034 1.954.067 3.015.1z"/>
<path fill="#f57b00" d="M882.179 614.609h-3.545c-1.16 0-2.253-.033-3.313-.066s-2.054-.033-2.949-.066c-.762 0-1.458-.034-2.12-.034V610.7c0-1.856 1.491-3.347 3.346-3.347h24.152c1.822 0 3.313 1.491 3.313 3.347v2.948c-.563.1-1.16.166-1.789.232-.928.1-1.888.166-2.949.265-1.06.066-2.153.133-3.313.199-1.159.066-2.319.099-3.545.132-.596.033-1.226.033-1.822.067-.596 0-1.226.033-1.822.033-1.226.033-2.452.033-3.644.033z"/>
<path fill="#4d4d4d" d="M871.047 630.81c.331.066.663.132.994.199.662.099 1.325.232 1.987.331l2.021.232.994.099 1.027.066 2.022.1c.662.033 1.358.033 2.021.033.662 0 1.358-.033 2.021-.066.331 0 .662-.034 1.027-.034.331-.033.662-.033 1.027-.066l.497-.033.497-.066 1.027-.099c.662-.067 1.358-.166 2.021-.265l.497-.067c.165-.033.331-.066.497-.099l.994-.199.994-.198.993-.232c.663-.133 1.326-.332 1.988-.53.332-.1.663-.199.994-.299.166-.066.365-.132.53-.165.331-.1.663-.232.994-.364h.033c.199-.067.398-.133.563-.232l.564-.232.563-.265c.199-.099.364-.199.563-.265.033 0 .033-.033.066-.033v6.792c0 1.822-1.49 3.313-3.346 3.313h-24.119c-1.855 0-3.346-1.491-3.346-3.347v-4.207l.795.198z"/>
<circle cx="890.818" cy="615.686" r="8.333" fill="url(#rdl6)"/>
<circle cx="890.818" cy="623.364" r="8.987" fill="url(#rdl7)"/>
<path fill="#f57b00" d="M1028.02 611.064c0-.431.232-.63.663-.63h2.551c.464 0 .663.199.663.63v2.65c0 .431-.232.63-.663.63h-2.551c-.464 0-.663-.199-.663-.63v-2.65z"/>
<path fill="#4d4d4d" d="M962.355 622.792h-2.452c-.464 0-.663-.198-.663-.596v-.199c0-1.59.365-2.75 1.094-3.445.728-.696 1.921-1.06 3.611-1.06h7.388c1.756 0 3.015.397 3.843 1.159.828.762 1.226 1.988 1.226 3.711v8.978c0 .531.265.796.828.796h.199c.43 0 .629.198.629.629v1.922c0 .431-.198.629-.629.629h-1.624c-1.027 0-1.789-.232-2.219-.729-.431-.497-.663-1.159-.663-1.988v-.231c-.696 1.954-2.352 2.948-4.97 2.948h-4.638c-1.656 0-2.882-.331-3.611-.994-.729-.662-1.093-1.822-1.093-3.512v-1.524c0-.861.099-1.59.265-2.153.165-.563.464-1.027.828-1.392.364-.364.861-.596 1.458-.762.596-.132 1.325-.231 2.153-.231h9.177v-1.69c0-.497-.033-.894-.099-1.193-.066-.298-.199-.563-.398-.728-.199-.166-.497-.299-.861-.365s-.862-.099-1.491-.099h-5.003c-.53 0-.96.099-1.226.298-.298.198-.43.563-.43 1.06v.165c0 .398-.199.596-.629.596zm35.979 0h-2.451c-.464 0-.663-.198-.663-.596v-.199c0-1.59.365-2.75 1.093-3.445.729-.696 1.922-1.06 3.612-1.06h7.421c1.756 0 3.015.397 3.843 1.159.828.762 1.226 1.988 1.226 3.711v8.978c0 .531.265.796.828.796h.199c.43 0 .629.198.629.629v1.922c0 .431-.199.629-.629.629h-1.624c-1.027 0-1.789-.232-2.219-.729-.431-.497-.663-1.159-.663-1.988v-.231c-.696 1.954-2.352 2.948-4.97 2.948h-4.737c-1.657 0-2.883-.331-3.612-.994-.728-.662-1.093-1.822-1.093-3.512v-1.524c0-.861.1-1.59.265-2.153.166-.563.464-1.027.828-1.392.365-.364.862-.596 1.458-.762.597-.132 1.325-.231 2.154-.231h9.21v-1.69c0-.497-.033-.894-.099-1.193-.067-.298-.199-.563-.398-.728-.199-.166-.497-.299-.861-.365-.365-.066-.862-.099-1.458-.099h-5.003c-.53 0-.96.099-1.226.298-.298.198-.43.563-.43 1.06v.165c0 .398-.199.596-.63.596zm-49.497 12.524h-2.551c-.464 0-.662-.199-.662-.63v-16.565c0-.431.232-.63.662-.63h2.021c.464 0 .663.199.663.63v2.551c.596-2.121 2.319-3.181 5.102-3.181h1.624c.464 0 .662.199.662.63v1.921c0 .431-.232.63-.662.63l-1.524.033c-1.69 0-2.883.364-3.612 1.093-.695.729-1.06 1.822-1.06 3.28v9.608c0 .431-.232.63-.663.63zm-25.941 0h-8.68c-1.656 0-2.882-.365-3.611-1.061-.729-.695-1.093-1.855-1.093-3.412v-.232c0-.397.232-.596.662-.596h2.452c.464 0 .663.198.663.596v.166c0 .53.132.861.397 1.06.265.198.696.298 1.259.298h7.057c.596 0 1.027-.1 1.292-.331.265-.199.397-.597.397-1.127v-1.292c0-.994-.563-1.491-1.689-1.491h-7.488c-.828 0-1.557-.066-2.12-.232-.597-.132-1.06-.397-1.425-.762-.364-.364-.662-.828-.828-1.391-.166-.564-.265-1.293-.265-2.154v-1.391c0-1.657.365-2.85 1.093-3.512.729-.663 1.922-.994 3.578-.994h7.952c1.623 0 2.816.364 3.545 1.06.729.696 1.093 1.855 1.093 3.412v.232c0 .398-.199.597-.629.597h-2.485c-.431 0-.63-.199-.63-.597v-.165c0-.497-.132-.862-.397-1.06-.265-.199-.696-.298-1.259-.298h-6.262c-.596 0-1.027.099-1.292.331-.265.198-.398.596-.398 1.126l-.033 1.226c0 .53.132.894.397 1.093.265.199.696.332 1.293.332h7.454c.828 0 1.557.066 2.154.231.596.133 1.093.398 1.457.762.365.365.663.829.829 1.392.165.563.264 1.292.264 2.154v1.524c0 1.656-.364 2.849-1.093 3.511-.729.663-1.921.995-3.611.995zm126.426 0h-8.68c-1.656 0-2.882-.365-3.611-1.061-.729-.695-1.093-1.855-1.093-3.412v-.232c0-.397.232-.596.662-.596h2.452c.464 0 .663.198.663.596v.166c0 .53.132.861.397 1.06.265.198.696.298 1.259.298h7.057c.596 0 1.027-.1 1.292-.331.265-.199.398-.597.398-1.127v-1.292c0-.994-.564-1.491-1.69-1.491h-7.488c-.828 0-1.557-.066-2.12-.232-.596-.132-1.06-.397-1.425-.762-.364-.364-.662-.828-.828-1.391-.165-.564-.265-1.293-.265-2.154v-1.391c0-1.657.365-2.85 1.093-3.512.729-.663 1.922-.994 3.579-.994h7.951c1.623 0 2.816.364 3.545 1.06.729.696 1.093 1.855 1.093 3.412v.232c0 .398-.199.597-.629.597h-2.485c-.431 0-.63-.199-.63-.597v-.165c0-.497-.132-.862-.398-1.06-.265-.199-.695-.298-1.259-.298h-6.261c-.597 0-1.027.099-1.292.331-.265.198-.398.596-.398 1.126l-.033 1.226c0 .53.132.894.398 1.093.265.199.695.332 1.292.332h7.454c.828 0 1.557.066 2.154.231.596.133 1.093.398 1.458.762.364.365.662.829.828 1.392.165.563.265 1.292.265 2.154v1.524c0 1.656-.365 2.849-1.093 3.511-.729.663-1.922.995-3.612.995zm-18.089-.034h-2.551c-.464 0-.663-.198-.663-.629v-16.532c0-.431.232-.63.663-.63h2.551c.464 0 .663.199.663.63v16.532c0 .431-.232.629-.663.629zm-40.254 0h-3.611c-1.689 0-2.915-.364-3.644-1.06-.729-.695-1.093-1.855-1.093-3.478v-10.039h-2.021c-.431 0-.63-.199-.63-.629v-1.922c0-.431.199-.63.63-.63h2.021v-3.942c0-.431.198-.63.629-.63h2.584c.464 0 .663.199.663.63v3.909h4.473c.43 0 .629.199.629.63v1.921c0 .431-.199.63-.629.63l-4.506.033v9.277c0 .463.033.828.099 1.093.067.265.166.464.299.629.132.133.331.265.596.298.265.067.563.1.961.1h2.551c.43 0 .629.198.629.629v1.922c0 .431-.199.629-.63.629zm-49.861 0h-3.611c-1.69 0-2.916-.364-3.645-1.06-.729-.695-1.093-1.855-1.093-3.478v-10.039h-2.021c-.43 0-.629-.199-.629-.629v-1.922c0-.431.198-.63.629-.63h2.021v-3.942c0-.431.199-.63.63-.63h2.584c.464 0 .663.199.663.63v3.909h4.472c.431 0 .63.199.63.63v1.921c0 .431-.199.63-.63.63l-4.506.033v9.277c0 .463.034.828.1 1.093s.165.464.298.629c.132.133.331.265.596.298.265.067.564.1.961.1h2.551c.431 0 .63.198.63.629v1.922c0 .431-.199.629-.63.629zm82.661-.033h-1.955c-1.59 0-2.75-.331-3.446-.994-.696-.662-1.027-1.755-1.027-3.279v-20.11c0-.431.232-.63.663-.63h2.584c.431 0 .629.199.629.63v19.679c0 .596.133.994.365 1.193.232.198.696.331 1.358.331h.829c.43 0 .629.199.629.629v1.922c0 .431-.199.629-.629.629zm-51.287-7.388h-8.282c-.563 0-.994.1-1.259.298-.298.199-.431.564-.431 1.127v1.358c0 .53.132.928.397 1.126.265.199.696.332 1.293.332h4.605c1.358 0 2.319-.265 2.849-.795.563-.53.828-1.359.828-2.518v-.928zm35.914 0h-8.283c-.563 0-.993.1-1.259.298-.298.199-.43.564-.43 1.127v1.358c0 .53.132.928.397 1.126.265.199.696.332 1.292.332h4.606c1.358 0 2.319-.265 2.849-.795.563-.53.828-1.359.828-2.518v-.928z"/>
</g> -->
</defs>

<use xlink:href="#browser_window"/>
<use xlink:href="#csv"/>
<use xlink:href="#json"/>
<use xlink:href="#api"/>
<use xlink:href="#web"/>
<g clip-path="url(#table_clip)">
  <use xlink:href="#table"/>
  <use y="302.5" xlink:href="#table"/>
</g>
<use id="tbl_head" xlink:href="#table_header"/>
<use xlink:href="#csv_big"/>
<use xlink:href="#monitor"/>
<use id="monitor_browser" x="165" y="386" xlink:href="#browser"/>
<use id="shad" xlink:href="#shadows"/>
<use id="monitor_block1" x="98.8" y="300.6" transform="translate(-10, 4)" xlink:href="#block1"/>
<use id="monitor_block2" x="459.9" y="419.4" transform="translate(-10, 4)" xlink:href="#block2"/>
<use id="monitor_block3" x="100.7" y="618.3" transform="translate(-10, 4)" xlink:href="#block3"/>
<use id="icn1" x="540" y="673" xlink:href="#icon2"/>
<use id="icn2" x="540" y="673" xlink:href="#icon1"/>
<use id="icn3" x="540" y="673" xlink:href="#icon3"/>
<use id="rslt1" x="940" y="673" xlink:href="#result4"/>
<use id="rslt2" x="940" y="673" xlink:href="#result4"/>
<use id="rslt3" x="940" y="673" xlink:href="#result4"/>
<use id="rslt4" x="940" y="673" xlink:href="#result4"/>
<use xlink:href="#conveyor"/>
<use xlink:href="#indicators"/>
<use id="l1" xlink:href="#lines1"/>
<use id="l2" xlink:href="#lines2"/>
<use id="l3" xlink:href="#lines3"/>
<use xlink:href="#logo"/>
<text x="1570" y="926" font-family="sans-serif" font-size="18" font-weight='bold' text-anchor="middle" fill="#0f3344">Maitrica vous accompagne.</text>

</svg>
