<?xml version="1.0" standalone="no"?>
<!DOCTYPE svg PUBLIC "-//W3C//DTD SVG 20010904//EN"
 "http://www.w3.org/TR/2001/REC-SVG-20010904/DTD/svg10.dtd">
<svg version="1.0" xmlns="http://www.w3.org/2000/svg"
 width="593.000000pt" height="421.000000pt" viewBox="0 0 593.000000 421.000000"
 preserveAspectRatio="xMidYMid meet">
<metadata>
Created by potrace 1.16, written by Peter Selinger 2001-2019
</metadata>
<g transform="translate(0.000000,421.000000) scale(0.100000,-0.100000)"
fill="#000000" stroke="none">
<path d="M3345 3864 c160 -33 277 -74 440 -155 182 -90 302 -176 450 -324 177
-176 293 -347 381 -563 24 -59 44 -100 44 -91 0 24 -82 207 -131 290 -103 178
-277 382 -423 497 -177 140 -379 249 -571 307 -33 10 -80 24 -104 31 -25 8
-58 13 -75 13 -19 -1 -23 -3 -11 -5z"/>
<path d="M3995 3420 c28 -24 100 -94 161 -156 229 -232 364 -499 429 -842 20
-109 20 -420 0 -512 -8 -36 -14 -76 -14 -90 1 -14 9 16 20 65 24 118 26 413 4
536 -47 257 -137 473 -281 675 -65 91 -266 298 -334 343 -22 15 -16 8 15 -19z"/>
<path d="M2770 3269 c-110 -62 -203 -177 -240 -297 -19 -62 -20 -93 -19 -816
0 -629 3 -757 15 -786 8 -19 11 -24 7 -10 -4 14 -9 367 -10 784 -3 673 -2 765
13 810 22 70 43 113 85 171 50 68 83 97 159 139 36 20 61 36 55 36 -5 0 -35
-14 -65 -31z"/>
<path d="M2187 2873 c-9 -89 -7 -1373 1 -1438 4 -27 7 300 7 728 0 427 0 777
-1 777 -1 0 -4 -30 -7 -67z"/>
<path d="M1422 1979 c-3 -66 47 -278 93 -395 124 -312 331 -570 604 -753 65
-44 250 -143 286 -154 11 -3 51 -17 89 -31 38 -14 76 -26 85 -26 9 1 -20 14
-64 29 -108 38 -110 39 -192 77 -396 183 -716 557 -838 979 -18 59 -52 225
-58 275 l-4 35 -1 -36z"/>
</g>
</svg>
