<svg width="2182" height="1154" viewBox="0 0 2182 1154" fill="none" xmlns="http://www.w3.org/2000/svg">
    <g filter="url(#filter0_d_1999_2339)">
        <g filter="url(#filter1_b_1999_2339)">
            <path d="M15 252C15 247.582 18.5817 244 23 244H263V1066H23C18.5817 1066 15 1062.42 15 1058V252Z"
                fill="#4B5563" />
            <circle cx="47" cy="268" r="8" fill="#E02424" />
            <circle cx="70" cy="268" r="8" fill="#FACA15" />
            <circle cx="93" cy="268" r="8" fill="#0E9F6E" />
            <rect width="248" height="36" transform="translate(15 292)" fill="#374151" />
            <path
                d="M39 306C39 305.47 39.2107 304.961 39.5858 304.586C39.9609 304.211 40.4696 304 41 304H46L48 306H53C53.5304 306 54.0391 306.211 54.4142 306.586C54.7893 306.961 55 307.47 55 308V314C55 314.53 54.7893 315.039 54.4142 315.414C54.0391 315.789 53.5304 316 53 316H41C40.4696 316 39.9609 315.789 39.5858 315.414C39.2107 315.039 39 314.53 39 314V306Z"
                fill="#9CA3AF" />
            <path
                d="M98.2169 303.297C97.8613 302.932 97.4297 302.75 96.9218 302.75C96.4142 302.75 95.9825 302.932 95.627 303.297C95.2717 303.661 95.094 304.104 95.094 304.625C95.094 304.964 95.1762 305.278 95.3413 305.567C95.5063 305.857 95.7283 306.083 96.0078 306.246C96.0078 306.585 95.9809 306.883 95.9271 307.14C95.873 307.397 95.7842 307.623 95.6605 307.818C95.5364 308.014 95.4082 308.18 95.2748 308.316C95.1413 308.453 94.9541 308.582 94.7129 308.702C94.4717 308.823 94.2478 308.923 94.0416 309.005C93.8354 309.086 93.5576 309.182 93.2085 309.293C92.5736 309.495 92.085 309.68 91.7422 309.85V304.996C92.0215 304.833 92.2436 304.607 92.4086 304.317C92.5736 304.028 92.6561 303.713 92.6561 303.375C92.6561 302.854 92.4785 302.411 92.123 302.047C91.7676 301.682 91.336 301.5 90.8281 301.5C90.3202 301.5 89.8887 301.682 89.5332 302.047C89.1778 302.411 89 302.854 89 303.375C89 303.713 89.0825 304.028 89.2475 304.317C89.4125 304.607 89.6346 304.833 89.914 304.996V313.004C89.6346 313.167 89.4125 313.393 89.2475 313.683C89.0825 313.973 89 314.287 89 314.625C89 315.146 89.1777 315.589 89.5332 315.953C89.8887 316.318 90.3203 316.5 90.8281 316.5C91.3359 316.5 91.7676 316.318 92.123 315.953C92.4784 315.589 92.6561 315.146 92.6561 314.625C92.6561 314.287 92.5736 313.973 92.4086 313.683C92.2436 313.393 92.0215 313.167 91.7422 313.004V312.75C91.7422 312.301 91.8739 311.976 92.1372 311.774C92.4006 311.572 92.9386 311.341 93.7512 311.08C94.6082 310.8 95.2526 310.536 95.6842 310.289C97.106 309.462 97.8233 308.115 97.836 306.246C98.1155 306.083 98.3374 305.857 98.5024 305.567C98.6674 305.278 98.75 304.964 98.75 304.625C98.7501 304.104 98.5723 303.662 98.2169 303.297ZM91.4757 315.289C91.2979 315.472 91.0821 315.563 90.8283 315.563C90.5743 315.563 90.3585 315.472 90.1807 315.289C90.0031 315.107 89.9141 314.886 89.9141 314.625C89.9141 314.365 90.003 314.144 90.1807 313.961C90.3585 313.779 90.5743 313.688 90.8283 313.688C91.0821 313.688 91.2979 313.779 91.4757 313.961C91.6535 314.144 91.7423 314.365 91.7423 314.625C91.7423 314.886 91.6535 315.107 91.4757 315.289ZM91.4757 304.039C91.2979 304.221 91.0821 304.313 90.8283 304.313C90.5743 304.313 90.3585 304.221 90.1807 304.039C90.0031 303.857 89.9141 303.636 89.9141 303.375C89.9141 303.115 90.003 302.893 90.1807 302.711C90.3585 302.529 90.5743 302.438 90.8283 302.438C91.0821 302.438 91.2979 302.529 91.4757 302.711C91.6535 302.893 91.7423 303.115 91.7423 303.375C91.7423 303.636 91.6535 303.857 91.4757 304.039ZM97.5694 305.289C97.3917 305.471 97.176 305.563 96.9221 305.563C96.668 305.563 96.4522 305.471 96.2746 305.289C96.0969 305.107 96.008 304.886 96.008 304.625C96.008 304.365 96.0969 304.143 96.2746 303.961C96.4523 303.779 96.668 303.688 96.9221 303.688C97.176 303.688 97.3917 303.779 97.5694 303.961C97.7471 304.143 97.836 304.365 97.836 304.625C97.836 304.886 97.7472 305.107 97.5694 305.289Z"
                fill="#9CA3AF" />
            <path
                d="M141.625 310.5H141.032L140.822 310.297C141.557 309.442 142 308.332 142 307.125C142 304.432 139.817 302.25 137.125 302.25C134.432 302.25 132.25 304.432 132.25 307.125C132.25 309.817 134.432 312 137.125 312C138.332 312 139.442 311.557 140.297 310.822L140.5 311.032V311.625L144.25 315.367L145.367 314.25L141.625 310.5V310.5ZM137.125 310.5C135.257 310.5 133.75 308.992 133.75 307.125C133.75 305.257 135.257 303.75 137.125 303.75C138.992 303.75 140.5 305.257 140.5 307.125C140.5 308.992 138.992 310.5 137.125 310.5Z"
                fill="#9CA3AF" />
            <path
                d="M185.25 309.75V315.75H191.25V309.75H185.25ZM177.75 315.75H183.75V309.75H177.75V315.75ZM177.75 302.25V308.25H183.75V302.25H177.75ZM187.995 301.268L183.75 305.505L187.995 309.75L192.24 305.505L187.995 301.268V301.268Z"
                fill="#9CA3AF" />
            <path
                d="M235.355 309.705C235.385 309.48 235.4 309.247 235.4 309C235.4 308.76 235.385 308.52 235.348 308.295L236.87 307.11C237.005 307.005 237.043 306.802 236.96 306.652L235.52 304.162C235.43 303.997 235.243 303.945 235.078 303.997L233.285 304.717C232.91 304.432 232.513 304.192 232.07 304.012L231.8 302.107C231.77 301.927 231.62 301.8 231.44 301.8H228.56C228.38 301.8 228.238 301.927 228.208 302.107L227.938 304.012C227.495 304.192 227.09 304.44 226.723 304.717L224.93 303.997C224.765 303.937 224.578 303.997 224.488 304.162L223.055 306.652C222.965 306.81 222.995 307.005 223.145 307.11L224.668 308.295C224.63 308.52 224.6 308.767 224.6 309C224.6 309.232 224.615 309.48 224.653 309.705L223.13 310.89C222.995 310.995 222.958 311.197 223.04 311.347L224.48 313.837C224.57 314.002 224.758 314.055 224.923 314.002L226.715 313.282C227.09 313.567 227.488 313.807 227.93 313.987L228.2 315.892C228.238 316.072 228.38 316.2 228.56 316.2H231.44C231.62 316.2 231.77 316.072 231.793 315.892L232.063 313.987C232.505 313.807 232.91 313.567 233.278 313.282L235.07 314.002C235.235 314.062 235.423 314.002 235.513 313.837L236.953 311.347C237.043 311.182 237.005 310.995 236.863 310.89L235.355 309.705ZM230 311.7C228.515 311.7 227.3 310.485 227.3 309C227.3 307.515 228.515 306.3 230 306.3C231.485 306.3 232.7 307.515 232.7 309C232.7 310.485 231.485 311.7 230 311.7Z"
                fill="#9CA3AF" />
            <rect x="39" y="352" width="12" height="12" rx="2" fill="#9CA3AF" />
            <rect x="65" y="352" width="174" height="12" rx="2" fill="#D4D4D8" />
            <rect x="39" y="378" width="12" height="12" rx="2" fill="#9CA3AF" />
            <rect x="65" y="378" width="174" height="12" rx="2" fill="#D4D4D8" />
            <rect x="39" y="404" width="12" height="12" rx="2" fill="#9CA3AF" />
            <rect x="65" y="404" width="174" height="12" rx="2" fill="#D4D4D8" />
            <rect x="39" y="430" width="12" height="12" rx="2" fill="#9CA3AF" />
            <rect x="65" y="430" width="174" height="12" rx="2" fill="#D4D4D8" />
            <rect x="39" y="456" width="12" height="12" rx="2" fill="#9CA3AF" />
            <rect x="65" y="456" width="174" height="12" rx="2" fill="#D4D4D8" />
            <rect x="39" y="482" width="12" height="12" rx="2" fill="#9CA3AF" />
            <rect x="65" y="482" width="174" height="12" rx="2" fill="#D4D4D8" />
            <rect x="39" y="508" width="12" height="12" rx="2" fill="#9CA3AF" />
            <rect x="65" y="508" width="174" height="12" rx="2" fill="#D4D4D8" />
            <rect x="39" y="534" width="12" height="12" rx="2" fill="#9CA3AF" />
            <rect x="65" y="534" width="174" height="12" rx="2" fill="#D4D4D8" />
            <rect x="39" y="560" width="12" height="12" rx="2" fill="#9CA3AF" />
            <rect x="65" y="560" width="174" height="12" rx="2" fill="#D4D4D8" />
            <rect x="39" y="586" width="12" height="12" rx="2" fill="#9CA3AF" />
            <rect x="65" y="586" width="174" height="12" rx="2" fill="#D4D4D8" />
            <rect x="39" y="612" width="12" height="12" rx="2" fill="#9CA3AF" />
            <rect x="65" y="612" width="174" height="12" rx="2" fill="#D4D4D8" />
            <rect x="63" y="644" width="12" height="12" rx="2" fill="#9CA3AF" />
            <rect x="89" y="644" width="150" height="12" rx="2" fill="#D4D4D8" />
            <rect x="63" y="670" width="12" height="12" rx="2" fill="#9CA3AF" />
            <rect x="89" y="670" width="150" height="12" rx="2" fill="#D4D4D8" />
            <rect x="63" y="696" width="12" height="12" rx="2" fill="#9CA3AF" />
            <rect x="89" y="696" width="150" height="12" rx="2" fill="#D4D4D8" />
            <rect x="63" y="722" width="12" height="12" rx="2" fill="#9CA3AF" />
            <rect x="89" y="722" width="150" height="12" rx="2" fill="#D4D4D8" />
            <rect x="63" y="748" width="12" height="12" rx="2" fill="#9CA3AF" />
            <rect x="89" y="748" width="150" height="12" rx="2" fill="#D4D4D8" />
        </g>
        <path d="M263 244H1028C1032.42 244 1036 247.582 1036 252V1058C1036 1062.42 1032.42 1066 1028 1066H263V244Z"
            fill="#1F2A37" />
        <path d="M263 244H1028C1032.42 244 1036 247.582 1036 252V274H263V244Z" fill="#111928" />
        <rect width="162" height="30" transform="translate(263 244)" fill="#1F2A37" />
        <path
            d="M283.5 251.5C282.675 251.5 282.008 252.175 282.008 253L282 265C282 265.825 282.667 266.5 283.492 266.5H292.5C293.325 266.5 294 265.825 294 265V256L289.5 251.5H283.5ZM288.75 256.75V252.625L292.875 256.75H288.75Z"
            fill="#6B7280" />
        <rect x="301" y="256" width="108" height="6" rx="2" fill="#6B7280" />
        <path
            d="M445.5 251.5C444.675 251.5 444.008 252.175 444.008 253L444 265C444 265.825 444.667 266.5 445.492 266.5H454.5C455.325 266.5 456 265.825 456 265V256L451.5 251.5H445.5ZM450.75 256.75V252.625L454.875 256.75H450.75Z"
            fill="#6B7280" />
        <rect x="463" y="256" width="108" height="6" rx="2" fill="#6B7280" />
        <g clip-path="url(#clip0_1999_2339)">
            <rect x="295" y="308" width="15" height="12" rx="2" fill="#6B7280" />
        </g>
        <g clip-path="url(#clip1_1999_2339)">
            <rect x="295" y="330" width="15" height="12" rx="2" fill="#6B7280" />
        </g>
        <g clip-path="url(#clip2_1999_2339)">
            <rect x="295" y="352" width="15" height="12" rx="2" fill="#6B7280" />
        </g>
        <g clip-path="url(#clip3_1999_2339)">
            <rect x="295" y="374" width="15" height="12" rx="2" fill="#6B7280" />
        </g>
        <g clip-path="url(#clip4_1999_2339)">
            <rect x="295" y="396" width="15" height="12" rx="2" fill="#6B7280" />
        </g>
        <g clip-path="url(#clip5_1999_2339)">
            <rect x="295" y="418" width="15" height="12" rx="2" fill="#6B7280" />
        </g>
        <g clip-path="url(#clip6_1999_2339)">
            <rect x="295" y="440" width="15" height="12" rx="2" fill="#6B7280" />
        </g>
        <g clip-path="url(#clip7_1999_2339)">
            <rect x="295" y="462" width="15" height="12" rx="2" fill="#6B7280" />
        </g>
        <g clip-path="url(#clip8_1999_2339)">
            <rect x="295" y="484" width="15" height="12" rx="2" fill="#6B7280" />
        </g>
        <g clip-path="url(#clip9_1999_2339)">
            <rect x="295" y="506" width="15" height="12" rx="2" fill="#6B7280" />
        </g>
        <g clip-path="url(#clip10_1999_2339)">
            <rect x="295" y="528" width="15" height="12" rx="2" fill="#6B7280" />
        </g>
        <g clip-path="url(#clip11_1999_2339)">
            <rect x="295" y="550" width="15" height="12" rx="2" fill="#6B7280" />
        </g>
        <g clip-path="url(#clip12_1999_2339)">
            <rect x="295" y="572" width="15" height="12" rx="2" fill="#6B7280" />
        </g>
        <g clip-path="url(#clip13_1999_2339)">
            <rect x="295" y="594" width="15" height="12" rx="2" fill="#6B7280" />
        </g>
        <g clip-path="url(#clip14_1999_2339)">
            <rect x="295" y="616" width="15" height="12" rx="2" fill="#6B7280" />
        </g>
        <g clip-path="url(#clip15_1999_2339)">
            <rect x="295" y="638" width="15" height="12" rx="2" fill="#6B7280" />
        </g>
        <g clip-path="url(#clip16_1999_2339)">
            <rect x="295" y="660" width="15" height="12" rx="2" fill="#6B7280" />
        </g>
        <g clip-path="url(#clip17_1999_2339)">
            <rect x="295" y="682" width="15" height="12" rx="2" fill="#6B7280" />
        </g>
        <g clip-path="url(#clip18_1999_2339)">
            <rect x="295" y="704" width="15" height="12" rx="2" fill="#6B7280" />
        </g>
        <g clip-path="url(#clip19_1999_2339)">
            <rect x="295" y="726" width="15" height="12" rx="2" fill="#6B7280" />
        </g>
        <g clip-path="url(#clip20_1999_2339)">
            <rect x="295" y="748" width="15" height="12" rx="2" fill="#6B7280" />
        </g>
        <g clip-path="url(#clip21_1999_2339)">
            <rect x="295" y="770" width="15" height="12" rx="2" fill="#6B7280" />
        </g>
        <g clip-path="url(#clip22_1999_2339)">
            <rect x="295" y="792" width="15" height="12" rx="2" fill="#6B7280" />
        </g>
        <g clip-path="url(#clip23_1999_2339)">
            <rect x="295" y="814" width="15" height="12" rx="2" fill="#6B7280" />
        </g>
        <g clip-path="url(#clip24_1999_2339)">
            <rect x="295" y="836" width="15" height="12" rx="2" fill="#6B7280" />
        </g>
        <g clip-path="url(#clip25_1999_2339)">
            <rect x="331" y="308" width="124" height="12" rx="2" fill="#6B7280" />
            <rect x="482" y="308" width="212" height="12" rx="2" fill="#6B7280" />
            <rect x="721" y="308" width="135" height="12" rx="2" fill="#6B7280" />
            <rect x="331" y="332" width="68" height="12" rx="2" fill="#6B7280" />
            <rect x="426" y="332" width="126" height="12" rx="2" fill="#6B7280" />
            <rect x="579" y="332" width="212" height="12" rx="2" fill="#6B7280" />
            <rect x="818" y="332" width="93" height="12" rx="2" fill="#6B7280" />
            <rect x="331" y="356" width="84" height="12" rx="2" fill="#6B7280" />
            <rect x="442" y="356" width="128" height="12" rx="2" fill="#6B7280" />
            <rect x="597" y="356" width="128" height="12" rx="2" fill="#6B7280" />
            <rect x="752" y="356" width="104" height="12" rx="2" fill="#6B7280" />
            <rect x="883" y="356" width="53" height="12" rx="2" fill="#6B7280" />
            <rect x="331" y="380" width="124" height="12" rx="2" fill="#6B7280" />
            <rect x="482" y="380" width="270" height="12" rx="2" fill="#6B7280" />
            <rect x="779" y="380" width="135" height="12" rx="2" fill="#6B7280" />
            <rect x="331" y="404" width="124" height="12" rx="2" fill="#6B7280" />
            <rect x="482" y="404" width="140" height="12" rx="2" fill="#6B7280" />
            <rect x="649" y="404" width="135" height="12" rx="2" fill="#6B7280" />
            <rect x="331" y="428" width="79" height="12" rx="2" fill="#6B7280" />
            <rect x="437" y="428" width="158" height="12" rx="2" fill="#6B7280" />
            <rect x="622" y="428" width="89" height="12" rx="2" fill="#6B7280" />
            <rect x="331" y="452" width="124" height="12" rx="2" fill="#6B7280" />
            <rect x="482" y="452" width="159" height="12" rx="2" fill="#6B7280" />
            <rect x="668" y="452" width="135" height="12" rx="2" fill="#6B7280" />
            <rect x="331" y="476" width="71" height="12" rx="2" fill="#6B7280" />
            <rect x="429" y="476" width="118" height="12" rx="2" fill="#6B7280" />
            <rect x="574" y="476" width="135" height="12" rx="2" fill="#6B7280" />
            <rect x="331" y="500" width="124" height="12" rx="2" fill="#6B7280" />
            <rect x="482" y="500" width="201" height="12" rx="2" fill="#6B7280" />
            <rect x="710" y="500" width="135" height="12" rx="2" fill="#6B7280" />
            <rect x="331" y="524" width="217" height="12" rx="2" fill="#6B7280" />
            <rect x="575" y="524" width="212" height="12" rx="2" fill="#6B7280" />
            <rect x="814" y="524" width="135" height="12" rx="2" fill="#6B7280" />
            <rect x="331" y="548" width="124" height="13" rx="2" fill="#6B7280" />
            <rect x="482" y="548" width="246" height="13" rx="2" fill="#6B7280" />
            <rect x="755" y="548" width="135" height="13" rx="2" fill="#6B7280" />
            <rect x="331" y="573" width="161" height="12" rx="2" fill="#6B7280" />
            <rect x="519" y="573" width="118" height="12" rx="2" fill="#6B7280" />
            <rect x="664" y="573" width="135" height="12" rx="2" fill="#6B7280" />
            <rect x="331" y="597" width="57" height="12" rx="2" fill="#6B7280" />
            <rect x="415" y="597" width="204" height="12" rx="2" fill="#6B7280" />
            <rect x="646" y="597" width="390" height="12" rx="2" fill="#6B7280" />
            <rect x="331" y="621" width="124" height="12" rx="2" fill="#6B7280" />
            <rect x="482" y="621" width="114" height="12" rx="2" fill="#6B7280" />
            <rect x="623" y="621" width="135" height="12" rx="2" fill="#6B7280" />
            <rect x="331" y="645" width="224" height="12" rx="2" fill="#6B7280" />
            <rect x="582" y="645" width="206" height="12" rx="2" fill="#6B7280" />
            <rect x="815" y="645" width="135" height="12" rx="2" fill="#6B7280" />
            <rect x="331" y="669" width="124" height="13" rx="2" fill="#6B7280" />
            <rect x="482" y="669" width="243" height="13" rx="2" fill="#6B7280" />
            <rect x="752" y="669" width="93" height="13" rx="2" fill="#6B7280" />
            <rect x="331" y="694" width="124" height="12" rx="2" fill="#6B7280" />
            <rect x="482" y="694" width="88" height="12" rx="2" fill="#6B7280" />
            <rect x="597" y="694" width="85" height="12" rx="2" fill="#6B7280" />
            <rect x="331" y="718" width="195" height="12" rx="2" fill="#6B7280" />
            <rect x="553" y="718" width="238" height="12" rx="2" fill="#6B7280" />
            <rect x="818" y="718" width="84" height="12" rx="2" fill="#6B7280" />
            <rect x="331" y="742" width="68" height="12" rx="2" fill="#6B7280" />
            <rect x="426" y="742" width="153" height="12" rx="2" fill="#6B7280" />
            <rect x="606" y="742" width="46" height="12" rx="2" fill="#6B7280" />
            <rect x="679" y="742" width="153" height="12" rx="2" fill="#6B7280" />
            <rect x="859" y="742" width="46" height="12" rx="2" fill="#6B7280" />
            <rect x="331" y="766" width="124" height="12" rx="2" fill="#6B7280" />
            <rect x="482" y="766" width="185" height="12" rx="2" fill="#6B7280" />
            <rect x="694" y="766" width="135" height="12" rx="2" fill="#6B7280" />
            <rect x="331" y="790" width="60" height="12" rx="2" fill="#6B7280" />
            <rect x="418" y="790" width="114" height="12" rx="2" fill="#6B7280" />
            <rect x="559" y="790" width="54" height="12" rx="2" fill="#6B7280" />
            <rect x="640" y="790" width="66" height="12" rx="2" fill="#6B7280" />
            <rect x="733" y="790" width="70" height="12" rx="2" fill="#6B7280" />
            <rect x="331" y="814" width="124" height="12" rx="2" fill="#6B7280" />
            <rect x="482" y="814" width="114" height="12" rx="2" fill="#6B7280" />
            <rect x="623" y="814" width="135" height="12" rx="2" fill="#6B7280" />
        </g>
        <path d="M263 1029H1036V1058C1036 1062.42 1032.42 1066 1028 1066H263V1029Z" fill="#374151" />
        <rect x="771" y="1045" width="45" height="5" rx="1" fill="#6B7280" />
        <rect x="839" y="1045" width="45" height="5" rx="1" fill="#6B7280" />
        <rect x="907" y="1045" width="45" height="5" rx="1" fill="#6B7280" />
        <rect x="975" y="1045" width="45" height="5" rx="1" fill="#6B7280" />
    </g>
    <g filter="url(#filter2_d_1999_2339)">
        <path d="M1151 248H2159C2163.42 248 2167 251.582 2167 256V1054C2167 1058.42 2163.42 1062 2159 1062H1151V248Z"
            fill="white" />
        <path d="M1151 248H2159C2163.42 248 2167 251.582 2167 256V278H1151V248Z" fill="#D1D5DB" />
        <rect width="162" height="30" transform="translate(1151 248)" fill="#E5E7EB" />
        <path
            d="M1171.5 255.5C1170.67 255.5 1170.01 256.175 1170.01 257L1170 269C1170 269.825 1170.67 270.5 1171.49 270.5H1180.5C1181.33 270.5 1182 269.825 1182 269V260L1177.5 255.5H1171.5ZM1176.75 260.75V256.625L1180.88 260.75H1176.75Z"
            fill="#6B7280" />
        <rect x="1189" y="260" width="108" height="6" rx="2" fill="#6B7280" />
        <g clip-path="url(#clip26_1999_2339)">
            <rect width="724" height="616" transform="translate(1297 278)" fill="white" />
            <g opacity="0.8" filter="url(#filter3_dd_1999_2339)">
                <rect width="724" height="36" transform="translate(1297 278)" fill="#FAFAFA" />
                <path
                    d="M1315.5 300.167V291.834M1315.5 300.167C1315.5 300.609 1315.32 301.033 1315.01 301.346C1314.7 301.658 1314.28 301.834 1313.83 301.834H1312.17C1311.72 301.834 1311.3 301.658 1310.99 301.346C1310.68 301.033 1310.5 300.609 1310.5 300.167V291.834C1310.5 291.392 1310.68 290.968 1310.99 290.655C1311.3 290.343 1311.72 290.167 1312.17 290.167H1313.83C1314.28 290.167 1314.7 290.343 1315.01 290.655C1315.32 290.968 1315.5 291.392 1315.5 291.834M1315.5 300.167C1315.5 300.609 1315.68 301.033 1315.99 301.346C1316.3 301.658 1316.72 301.834 1317.17 301.834H1318.83C1319.28 301.834 1319.7 301.658 1320.01 301.346C1320.32 301.033 1320.5 300.609 1320.5 300.167M1315.5 291.834C1315.5 291.392 1315.68 290.968 1315.99 290.655C1316.3 290.343 1316.72 290.167 1317.17 290.167H1318.83C1319.28 290.167 1319.7 290.343 1320.01 290.655C1320.32 290.968 1320.5 291.392 1320.5 291.834M1320.5 300.167V291.834M1320.5 300.167C1320.5 300.609 1320.68 301.033 1320.99 301.346C1321.3 301.658 1321.72 301.834 1322.17 301.834H1323.83C1324.28 301.834 1324.7 301.658 1325.01 301.346C1325.32 301.033 1325.5 300.609 1325.5 300.167V291.834C1325.5 291.392 1325.32 290.968 1325.01 290.655C1324.7 290.343 1324.28 290.167 1323.83 290.167H1322.17C1321.72 290.167 1321.3 290.343 1320.99 290.655C1320.68 290.968 1320.5 291.392 1320.5 291.834"
                    stroke="#9CA3AF" stroke-width="2" stroke-linecap="round" stroke-linejoin="round" />
                <path
                    d="M1368.76 293.255H1348.67C1347.75 293.255 1347 294.484 1347 296C1347 297.516 1347.75 298.745 1348.67 298.745H1368.76C1369.68 298.745 1370.43 297.516 1370.43 296C1370.43 294.484 1369.68 293.255 1368.76 293.255Z"
                    fill="#9CA3AF" />
                <path
                    d="M1402.9 293.255H1379.39C1378.31 293.255 1377.43 294.484 1377.43 296C1377.43 297.516 1378.31 298.745 1379.39 298.745H1402.9C1403.98 298.745 1404.86 297.516 1404.86 296C1404.86 294.484 1403.98 293.255 1402.9 293.255Z"
                    fill="#9CA3AF" />
                <path
                    d="M1433.62 293.255H1413.53C1412.61 293.255 1411.86 294.484 1411.86 296C1411.86 297.516 1412.61 298.745 1413.53 298.745H1433.62C1434.54 298.745 1435.29 297.516 1435.29 296C1435.29 294.484 1434.54 293.255 1433.62 293.255Z"
                    fill="#9CA3AF" />
                <path
                    d="M1467.76 293.255H1444.25C1443.17 293.255 1442.29 294.484 1442.29 296C1442.29 297.516 1443.17 298.745 1444.25 298.745H1467.76C1468.84 298.745 1469.72 297.516 1469.72 296C1469.72 294.484 1468.84 293.255 1467.76 293.255Z"
                    fill="#9CA3AF" />
                <path
                    d="M1502.19 293.255H1478.68C1477.6 293.255 1476.72 294.484 1476.72 296C1476.72 297.516 1477.6 298.745 1478.68 298.745H1502.19C1503.27 298.745 1504.15 297.516 1504.15 296C1504.15 294.484 1503.27 293.255 1502.19 293.255Z"
                    fill="#9CA3AF" />
                <rect x="1964" y="289.5" width="49" height="13" rx="3" fill="#1A56DB" />
                <rect x="1976" y="293.955" width="25" height="4.09043" rx="2" fill="white" />
            </g>
            <rect x="1321" y="358" width="676" height="18" rx="8" fill="white" />
            <rect x="1321" y="358" width="199" height="6" rx="1" fill="#9CA3AF" />
            <rect x="1321" y="372" width="373" height="4" rx="1" fill="#D1D5DB" />
            <rect x="1321.5" y="413.5" width="217.667" height="219" rx="7.5" fill="white" />
            <rect x="1411.83" y="429" width="37" height="7" rx="2" fill="#E5E7EB" />
            <path
                d="M1415.62 465.909H1417.38L1417.4 464.186C1420.63 463.94 1422.5 462.225 1422.51 459.637C1422.5 457.094 1420.58 455.745 1417.93 455.148L1417.49 455.044L1417.52 451.315C1418.51 451.546 1419.11 452.18 1419.2 453.12H1422.3C1422.26 450.651 1420.42 448.884 1417.55 448.571L1417.56 446.818H1415.8L1415.79 448.556C1412.87 448.839 1410.81 450.599 1410.83 453.142C1410.82 455.394 1412.41 456.684 1414.99 457.303L1415.7 457.482L1415.67 461.427C1414.45 461.196 1413.63 460.45 1413.55 459.205H1410.43C1410.5 462.218 1412.48 463.903 1415.64 464.179L1415.62 465.909ZM1417.43 461.427L1417.46 457.945C1418.61 458.31 1419.24 458.78 1419.25 459.63C1419.24 460.532 1418.55 461.203 1417.43 461.427ZM1415.73 454.589C1414.8 454.268 1414.12 453.783 1414.14 452.926C1414.14 452.128 1414.71 451.509 1415.76 451.293L1415.73 454.589ZM1430.11 448.518C1426.7 448.504 1424.39 450.741 1424.41 453.813C1424.42 456.662 1426.39 458.728 1429.1 458.728C1430.78 458.728 1432.27 457.915 1432.95 456.572H1433.05C1433.05 459.6 1431.99 461.442 1430 461.442C1428.83 461.442 1427.99 460.801 1427.74 459.69H1424.56C1424.86 462.262 1426.95 464.209 1430 464.209C1433.78 464.209 1436.22 461.151 1436.21 455.968C1436.21 450.435 1433.25 448.533 1430.11 448.518ZM1430.14 451.054C1431.62 451.054 1432.72 452.262 1432.73 453.716C1432.74 455.178 1431.58 456.386 1430.11 456.386C1428.62 456.386 1427.55 455.223 1427.54 453.724C1427.53 452.232 1428.64 451.054 1430.14 451.054ZM1443.98 448.518C1440.56 448.504 1438.26 450.741 1438.27 453.813C1438.28 456.662 1440.26 458.728 1442.96 458.728C1444.64 458.728 1446.13 457.915 1446.81 456.572H1446.92C1446.91 459.6 1445.86 461.442 1443.87 461.442C1442.7 461.442 1441.85 460.801 1441.61 459.69H1438.42C1438.72 462.262 1440.81 464.209 1443.87 464.209C1447.65 464.209 1450.09 461.151 1450.08 455.968C1450.07 450.435 1447.12 448.533 1443.98 448.518ZM1444 451.054C1445.48 451.054 1446.58 452.262 1446.6 453.716C1446.6 455.178 1445.45 456.386 1443.97 456.386C1442.48 456.386 1441.41 455.223 1441.4 453.724C1441.39 452.232 1442.5 451.054 1444 451.054Z"
                fill="#9CA3AF" />
            <path
                d="M1340.75 494L1341.58 494.833L1343.25 493.167M1345.75 494C1345.75 494.492 1345.65 494.98 1345.46 495.435C1345.28 495.89 1345 496.303 1344.65 496.652C1344.3 497 1343.89 497.276 1343.44 497.465C1342.98 497.653 1342.49 497.75 1342 497.75C1341.51 497.75 1341.02 497.653 1340.56 497.465C1340.11 497.276 1339.7 497 1339.35 496.652C1339 496.303 1338.72 495.89 1338.54 495.435C1338.35 494.98 1338.25 494.492 1338.25 494C1338.25 493.005 1338.65 492.052 1339.35 491.348C1340.05 490.645 1341.01 490.25 1342 490.25C1342.99 490.25 1343.95 490.645 1344.65 491.348C1345.35 492.052 1345.75 493.005 1345.75 494Z"
                stroke="#9CA3AF" stroke-linecap="round" stroke-linejoin="round" />
            <rect x="1353" y="490.5" width="170.667" height="7" rx="2" fill="#D1D5DB" />
            <path
                d="M1340.75 511L1341.58 511.833L1343.25 510.167M1345.75 511C1345.75 511.492 1345.65 511.98 1345.46 512.435C1345.28 512.89 1345 513.303 1344.65 513.652C1344.3 514 1343.89 514.276 1343.44 514.465C1342.98 514.653 1342.49 514.75 1342 514.75C1341.51 514.75 1341.02 514.653 1340.56 514.465C1340.11 514.276 1339.7 514 1339.35 513.652C1339 513.303 1338.72 512.89 1338.54 512.435C1338.35 511.98 1338.25 511.492 1338.25 511C1338.25 510.005 1338.65 509.052 1339.35 508.348C1340.05 507.645 1341.01 507.25 1342 507.25C1342.99 507.25 1343.95 507.645 1344.65 508.348C1345.35 509.052 1345.75 510.005 1345.75 511Z"
                stroke="#9CA3AF" stroke-linecap="round" stroke-linejoin="round" />
            <rect x="1353" y="507.5" width="170.667" height="7" rx="2" fill="#D1D5DB" />
            <path
                d="M1340.75 528L1341.58 528.833L1343.25 527.167M1345.75 528C1345.75 528.492 1345.65 528.98 1345.46 529.435C1345.28 529.89 1345 530.303 1344.65 530.652C1344.3 531 1343.89 531.276 1343.44 531.465C1342.98 531.653 1342.49 531.75 1342 531.75C1341.51 531.75 1341.02 531.653 1340.56 531.465C1340.11 531.276 1339.7 531 1339.35 530.652C1339 530.303 1338.72 529.89 1338.54 529.435C1338.35 528.98 1338.25 528.492 1338.25 528C1338.25 527.005 1338.65 526.052 1339.35 525.348C1340.05 524.645 1341.01 524.25 1342 524.25C1342.99 524.25 1343.95 524.645 1344.65 525.348C1345.35 526.052 1345.75 527.005 1345.75 528Z"
                stroke="#9CA3AF" stroke-linecap="round" stroke-linejoin="round" />
            <rect x="1353" y="524.5" width="170.667" height="7" rx="2" fill="#D1D5DB" />
            <path
                d="M1340.75 545L1341.58 545.833L1343.25 544.167M1345.75 545C1345.75 545.492 1345.65 545.98 1345.46 546.435C1345.28 546.89 1345 547.303 1344.65 547.652C1344.3 548 1343.89 548.276 1343.44 548.465C1342.98 548.653 1342.49 548.75 1342 548.75C1341.51 548.75 1341.02 548.653 1340.56 548.465C1340.11 548.276 1339.7 548 1339.35 547.652C1339 547.303 1338.72 546.89 1338.54 546.435C1338.35 545.98 1338.25 545.492 1338.25 545C1338.25 544.005 1338.65 543.052 1339.35 542.348C1340.05 541.645 1341.01 541.25 1342 541.25C1342.99 541.25 1343.95 541.645 1344.65 542.348C1345.35 543.052 1345.75 544.005 1345.75 545Z"
                stroke="#9CA3AF" stroke-linecap="round" stroke-linejoin="round" />
            <rect x="1353" y="541.5" width="170.667" height="7" rx="2" fill="#D1D5DB" />
            <path
                d="M1340.75 562L1341.58 562.833L1343.25 561.167M1345.75 562C1345.75 562.492 1345.65 562.98 1345.46 563.435C1345.28 563.89 1345 564.303 1344.65 564.652C1344.3 565 1343.89 565.276 1343.44 565.465C1342.98 565.653 1342.49 565.75 1342 565.75C1341.51 565.75 1341.02 565.653 1340.56 565.465C1340.11 565.276 1339.7 565 1339.35 564.652C1339 564.303 1338.72 563.89 1338.54 563.435C1338.35 562.98 1338.25 562.492 1338.25 562C1338.25 561.005 1338.65 560.052 1339.35 559.348C1340.05 558.645 1341.01 558.25 1342 558.25C1342.99 558.25 1343.95 558.645 1344.65 559.348C1345.35 560.052 1345.75 561.005 1345.75 562Z"
                stroke="#9CA3AF" stroke-linecap="round" stroke-linejoin="round" />
            <rect x="1353" y="558.5" width="170.667" height="7" rx="2" fill="#D1D5DB" />
            <path
                d="M1340.75 579L1341.58 579.833L1343.25 578.167M1345.75 579C1345.75 579.492 1345.65 579.98 1345.46 580.435C1345.28 580.89 1345 581.303 1344.65 581.652C1344.3 582 1343.89 582.276 1343.44 582.465C1342.98 582.653 1342.49 582.75 1342 582.75C1341.51 582.75 1341.02 582.653 1340.56 582.465C1340.11 582.276 1339.7 582 1339.35 581.652C1339 581.303 1338.72 580.89 1338.54 580.435C1338.35 579.98 1338.25 579.492 1338.25 579C1338.25 578.005 1338.65 577.052 1339.35 576.348C1340.05 575.645 1341.01 575.25 1342 575.25C1342.99 575.25 1343.95 575.645 1344.65 576.348C1345.35 577.052 1345.75 578.005 1345.75 579Z"
                stroke="#9CA3AF" stroke-linecap="round" stroke-linejoin="round" />
            <rect x="1353" y="575.5" width="170.667" height="7" rx="2" fill="#D1D5DB" />
            <rect x="1337" y="604" width="186.667" height="13" rx="2" fill="#1A56DB" />
            <rect x="1401.33" y="608.5" width="58" height="4" rx="1" fill="white" />
            <rect x="1321.5" y="413.5" width="217.667" height="219" rx="7.5" stroke="#D1D5DB" />
            <rect x="1550.17" y="413.5" width="217.667" height="219" rx="7.5" fill="white" />
            <rect x="1640.5" y="429" width="37" height="7" rx="2" fill="#E5E7EB" />
            <path
                d="M1637.68 465.909H1639.44L1639.45 464.186C1642.68 463.94 1644.55 462.225 1644.56 459.637C1644.55 457.094 1642.63 455.745 1639.98 455.148L1639.54 455.044L1639.57 451.315C1640.56 451.546 1641.17 452.18 1641.26 453.12H1644.35C1644.31 450.651 1642.47 448.884 1639.6 448.571L1639.61 446.818H1637.85L1637.84 448.556C1634.92 448.839 1632.87 450.599 1632.88 453.142C1632.87 455.394 1634.46 456.684 1637.04 457.303L1637.76 457.482L1637.72 461.427C1636.5 461.196 1635.68 460.45 1635.6 459.205H1632.48C1632.55 462.218 1634.53 463.903 1637.69 464.179L1637.68 465.909ZM1639.48 461.427L1639.51 457.945C1640.67 458.31 1641.29 458.78 1641.3 459.63C1641.29 460.532 1640.61 461.203 1639.48 461.427ZM1637.78 454.589C1636.85 454.268 1636.18 453.783 1636.19 452.926C1636.19 452.128 1636.76 451.509 1637.81 451.293L1637.78 454.589ZM1646.64 464H1657.53V461.36H1651.12V461.256L1653.35 459.071C1656.48 456.207 1657.33 454.775 1657.33 453.038C1657.33 450.39 1655.17 448.518 1651.89 448.518C1648.68 448.518 1646.48 450.435 1646.49 453.433H1649.56C1649.55 451.971 1650.47 451.076 1651.87 451.076C1653.21 451.076 1654.21 451.912 1654.21 453.254C1654.21 454.469 1653.46 455.305 1652.08 456.64L1646.64 461.673V464ZM1665.39 448.518C1661.98 448.504 1659.67 450.741 1659.69 453.813C1659.7 456.662 1661.67 458.728 1664.38 458.728C1666.06 458.728 1667.55 457.915 1668.23 456.572H1668.33C1668.33 459.6 1667.27 461.442 1665.28 461.442C1664.11 461.442 1663.27 460.801 1663.02 459.69H1659.84C1660.14 462.262 1662.23 464.209 1665.28 464.209C1669.06 464.209 1671.5 461.151 1671.49 455.968C1671.49 450.435 1668.53 448.533 1665.39 448.518ZM1665.42 451.054C1666.9 451.054 1668 452.262 1668.01 453.716C1668.02 455.178 1666.86 456.386 1665.39 456.386C1663.9 456.386 1662.83 455.223 1662.82 453.724C1662.81 452.232 1663.92 451.054 1665.42 451.054ZM1679.26 448.518C1675.84 448.504 1673.54 450.741 1673.55 453.813C1673.56 456.662 1675.54 458.728 1678.24 458.728C1679.92 458.728 1681.41 457.915 1682.09 456.572H1682.2C1682.19 459.6 1681.14 461.442 1679.15 461.442C1677.98 461.442 1677.13 460.801 1676.89 459.69H1673.7C1674 462.262 1676.09 464.209 1679.15 464.209C1682.93 464.209 1685.37 461.151 1685.36 455.968C1685.35 450.435 1682.4 448.533 1679.26 448.518ZM1679.28 451.054C1680.76 451.054 1681.86 452.262 1681.88 453.716C1681.88 455.178 1680.73 456.386 1679.25 456.386C1677.76 456.386 1676.69 455.223 1676.69 453.724C1676.67 452.232 1677.78 451.054 1679.28 451.054Z"
                fill="#9CA3AF" />
            <path
                d="M1569.42 494L1570.25 494.833L1571.92 493.167M1574.42 494C1574.42 494.492 1574.32 494.98 1574.13 495.435C1573.94 495.89 1573.67 496.303 1573.32 496.652C1572.97 497 1572.56 497.276 1572.1 497.465C1571.65 497.653 1571.16 497.75 1570.67 497.75C1570.17 497.75 1569.69 497.653 1569.23 497.465C1568.78 497.276 1568.36 497 1568.01 496.652C1567.67 496.303 1567.39 495.89 1567.2 495.435C1567.01 494.98 1566.92 494.492 1566.92 494C1566.92 493.005 1567.31 492.052 1568.01 491.348C1568.72 490.645 1569.67 490.25 1570.67 490.25C1571.66 490.25 1572.61 490.645 1573.32 491.348C1574.02 492.052 1574.42 493.005 1574.42 494Z"
                stroke="#9CA3AF" stroke-linecap="round" stroke-linejoin="round" />
            <rect x="1581.67" y="490.5" width="170.667" height="7" rx="2" fill="#D1D5DB" />
            <path
                d="M1569.42 511L1570.25 511.833L1571.92 510.167M1574.42 511C1574.42 511.492 1574.32 511.98 1574.13 512.435C1573.94 512.89 1573.67 513.303 1573.32 513.652C1572.97 514 1572.56 514.276 1572.1 514.465C1571.65 514.653 1571.16 514.75 1570.67 514.75C1570.17 514.75 1569.69 514.653 1569.23 514.465C1568.78 514.276 1568.36 514 1568.01 513.652C1567.67 513.303 1567.39 512.89 1567.2 512.435C1567.01 511.98 1566.92 511.492 1566.92 511C1566.92 510.005 1567.31 509.052 1568.01 508.348C1568.72 507.645 1569.67 507.25 1570.67 507.25C1571.66 507.25 1572.61 507.645 1573.32 508.348C1574.02 509.052 1574.42 510.005 1574.42 511Z"
                stroke="#9CA3AF" stroke-linecap="round" stroke-linejoin="round" />
            <rect x="1581.67" y="507.5" width="170.667" height="7" rx="2" fill="#D1D5DB" />
            <path
                d="M1569.42 528L1570.25 528.833L1571.92 527.167M1574.42 528C1574.42 528.492 1574.32 528.98 1574.13 529.435C1573.94 529.89 1573.67 530.303 1573.32 530.652C1572.97 531 1572.56 531.276 1572.1 531.465C1571.65 531.653 1571.16 531.75 1570.67 531.75C1570.17 531.75 1569.69 531.653 1569.23 531.465C1568.78 531.276 1568.36 531 1568.01 530.652C1567.67 530.303 1567.39 529.89 1567.2 529.435C1567.01 528.98 1566.92 528.492 1566.92 528C1566.92 527.005 1567.31 526.052 1568.01 525.348C1568.72 524.645 1569.67 524.25 1570.67 524.25C1571.66 524.25 1572.61 524.645 1573.32 525.348C1574.02 526.052 1574.42 527.005 1574.42 528Z"
                stroke="#9CA3AF" stroke-linecap="round" stroke-linejoin="round" />
            <rect x="1581.67" y="524.5" width="170.667" height="7" rx="2" fill="#D1D5DB" />
            <path
                d="M1569.42 545L1570.25 545.833L1571.92 544.167M1574.42 545C1574.42 545.492 1574.32 545.98 1574.13 546.435C1573.94 546.89 1573.67 547.303 1573.32 547.652C1572.97 548 1572.56 548.276 1572.1 548.465C1571.65 548.653 1571.16 548.75 1570.67 548.75C1570.17 548.75 1569.69 548.653 1569.23 548.465C1568.78 548.276 1568.36 548 1568.01 547.652C1567.67 547.303 1567.39 546.89 1567.2 546.435C1567.01 545.98 1566.92 545.492 1566.92 545C1566.92 544.005 1567.31 543.052 1568.01 542.348C1568.72 541.645 1569.67 541.25 1570.67 541.25C1571.66 541.25 1572.61 541.645 1573.32 542.348C1574.02 543.052 1574.42 544.005 1574.42 545Z"
                stroke="#9CA3AF" stroke-linecap="round" stroke-linejoin="round" />
            <rect x="1581.67" y="541.5" width="170.667" height="7" rx="2" fill="#D1D5DB" />
            <path
                d="M1569.42 562L1570.25 562.833L1571.92 561.167M1574.42 562C1574.42 562.492 1574.32 562.98 1574.13 563.435C1573.94 563.89 1573.67 564.303 1573.32 564.652C1572.97 565 1572.56 565.276 1572.1 565.465C1571.65 565.653 1571.16 565.75 1570.67 565.75C1570.17 565.75 1569.69 565.653 1569.23 565.465C1568.78 565.276 1568.36 565 1568.01 564.652C1567.67 564.303 1567.39 563.89 1567.2 563.435C1567.01 562.98 1566.92 562.492 1566.92 562C1566.92 561.005 1567.31 560.052 1568.01 559.348C1568.72 558.645 1569.67 558.25 1570.67 558.25C1571.66 558.25 1572.61 558.645 1573.32 559.348C1574.02 560.052 1574.42 561.005 1574.42 562Z"
                stroke="#9CA3AF" stroke-linecap="round" stroke-linejoin="round" />
            <rect x="1581.67" y="558.5" width="170.667" height="7" rx="2" fill="#D1D5DB" />
            <path
                d="M1569.42 579L1570.25 579.833L1571.92 578.167M1574.42 579C1574.42 579.492 1574.32 579.98 1574.13 580.435C1573.94 580.89 1573.67 581.303 1573.32 581.652C1572.97 582 1572.56 582.276 1572.1 582.465C1571.65 582.653 1571.16 582.75 1570.67 582.75C1570.17 582.75 1569.69 582.653 1569.23 582.465C1568.78 582.276 1568.36 582 1568.01 581.652C1567.67 581.303 1567.39 580.89 1567.2 580.435C1567.01 579.98 1566.92 579.492 1566.92 579C1566.92 578.005 1567.31 577.052 1568.01 576.348C1568.72 575.645 1569.67 575.25 1570.67 575.25C1571.66 575.25 1572.61 575.645 1573.32 576.348C1574.02 577.052 1574.42 578.005 1574.42 579Z"
                stroke="#9CA3AF" stroke-linecap="round" stroke-linejoin="round" />
            <rect x="1581.67" y="575.5" width="170.667" height="7" rx="2" fill="#D1D5DB" />
            <rect x="1565.67" y="604" width="186.667" height="13" rx="2" fill="#1A56DB" />
            <rect x="1630" y="608.5" width="58" height="4" rx="1" fill="white" />
            <rect x="1550.17" y="413.5" width="217.667" height="219" rx="7.5" stroke="#D1D5DB" />
            <rect x="1778.83" y="413.5" width="217.667" height="219" rx="7.5" fill="white" />
            <rect x="1869.17" y="429" width="37" height="7" rx="2" fill="#E5E7EB" />
            <path
                d="M1866.02 465.909H1867.78L1867.8 464.186C1871.03 463.94 1872.9 462.225 1872.91 459.637C1872.9 457.094 1870.98 455.745 1868.33 455.148L1867.89 455.044L1867.92 451.315C1868.91 451.546 1869.51 452.18 1869.6 453.12H1872.7C1872.66 450.651 1870.82 448.884 1867.95 448.571L1867.96 446.818H1866.2L1866.19 448.556C1863.27 448.839 1861.21 450.599 1861.23 453.142C1861.22 455.394 1862.81 456.684 1865.39 457.303L1866.11 457.482L1866.07 461.427C1864.85 461.196 1864.03 460.45 1863.95 459.205H1860.83C1860.9 462.218 1862.88 463.903 1866.04 464.179L1866.02 465.909ZM1867.83 461.427L1867.86 457.945C1869.02 458.31 1869.64 458.78 1869.65 459.63C1869.64 460.532 1868.96 461.203 1867.83 461.427ZM1866.13 454.589C1865.2 454.268 1864.53 453.783 1864.54 452.926C1864.54 452.128 1865.11 451.509 1866.16 451.293L1866.13 454.589ZM1880.52 448.518C1877.1 448.504 1874.8 450.741 1874.81 453.813C1874.82 456.662 1876.8 458.728 1879.5 458.728C1881.18 458.728 1882.67 457.915 1883.35 456.572H1883.45C1883.45 459.6 1882.4 461.442 1880.4 461.442C1879.23 461.442 1878.39 460.801 1878.14 459.69H1874.96C1875.26 462.262 1877.35 464.209 1880.4 464.209C1884.19 464.209 1886.62 461.151 1886.62 455.968C1886.61 450.435 1883.66 448.533 1880.52 448.518ZM1880.54 451.054C1882.02 451.054 1883.12 452.262 1883.13 453.716C1883.14 455.178 1881.99 456.386 1880.51 456.386C1879.02 456.386 1877.95 455.223 1877.94 453.724C1877.93 452.232 1879.04 451.054 1880.54 451.054ZM1894.38 448.518C1890.96 448.504 1888.66 450.741 1888.67 453.813C1888.68 456.662 1890.66 458.728 1893.37 458.728C1895.04 458.728 1896.53 457.915 1897.21 456.572H1897.32C1897.31 459.6 1896.26 461.442 1894.27 461.442C1893.1 461.442 1892.25 460.801 1892.01 459.69H1888.82C1889.12 462.262 1891.21 464.209 1894.27 464.209C1898.05 464.209 1900.49 461.151 1900.48 455.968C1900.47 450.435 1897.52 448.533 1894.38 448.518ZM1894.4 451.054C1895.89 451.054 1896.98 452.262 1897 453.716C1897 455.178 1895.85 456.386 1894.37 456.386C1892.88 456.386 1891.81 455.223 1891.81 453.724C1891.79 452.232 1892.9 451.054 1894.4 451.054ZM1908.24 448.518C1904.83 448.504 1902.52 450.741 1902.54 453.813C1902.55 456.662 1904.52 458.728 1907.23 458.728C1908.91 458.728 1910.4 457.915 1911.08 456.572H1911.18C1911.17 459.6 1910.12 461.442 1908.13 461.442C1906.96 461.442 1906.12 460.801 1905.87 459.69H1902.69C1902.99 462.262 1905.07 464.209 1908.13 464.209C1911.91 464.209 1914.35 461.151 1914.34 455.968C1914.34 450.435 1911.38 448.533 1908.24 448.518ZM1908.27 451.054C1909.75 451.054 1910.85 452.262 1910.86 453.716C1910.87 455.178 1909.71 456.386 1908.24 456.386C1906.74 456.386 1905.68 455.223 1905.67 453.724C1905.66 452.232 1906.77 451.054 1908.27 451.054Z"
                fill="#9CA3AF" />
            <path
                d="M1798.08 494L1798.92 494.833L1800.58 493.167M1803.08 494C1803.08 494.492 1802.99 494.98 1802.8 495.435C1802.61 495.89 1802.33 496.303 1801.99 496.652C1801.64 497 1801.22 497.276 1800.77 497.465C1800.31 497.653 1799.83 497.75 1799.33 497.75C1798.84 497.75 1798.35 497.653 1797.9 497.465C1797.44 497.276 1797.03 497 1796.68 496.652C1796.33 496.303 1796.06 495.89 1795.87 495.435C1795.68 494.98 1795.58 494.492 1795.58 494C1795.58 493.005 1795.98 492.052 1796.68 491.348C1797.39 490.645 1798.34 490.25 1799.33 490.25C1800.33 490.25 1801.28 490.645 1801.99 491.348C1802.69 492.052 1803.08 493.005 1803.08 494Z"
                stroke="#9CA3AF" stroke-linecap="round" stroke-linejoin="round" />
            <rect x="1810.33" y="490.5" width="170.667" height="7" rx="2" fill="#D1D5DB" />
            <path
                d="M1798.08 511L1798.92 511.833L1800.58 510.167M1803.08 511C1803.08 511.492 1802.99 511.98 1802.8 512.435C1802.61 512.89 1802.33 513.303 1801.99 513.652C1801.64 514 1801.22 514.276 1800.77 514.465C1800.31 514.653 1799.83 514.75 1799.33 514.75C1798.84 514.75 1798.35 514.653 1797.9 514.465C1797.44 514.276 1797.03 514 1796.68 513.652C1796.33 513.303 1796.06 512.89 1795.87 512.435C1795.68 511.98 1795.58 511.492 1795.58 511C1795.58 510.005 1795.98 509.052 1796.68 508.348C1797.39 507.645 1798.34 507.25 1799.33 507.25C1800.33 507.25 1801.28 507.645 1801.99 508.348C1802.69 509.052 1803.08 510.005 1803.08 511Z"
                stroke="#9CA3AF" stroke-linecap="round" stroke-linejoin="round" />
            <rect x="1810.33" y="507.5" width="170.667" height="7" rx="2" fill="#D1D5DB" />
            <path
                d="M1798.08 528L1798.92 528.833L1800.58 527.167M1803.08 528C1803.08 528.492 1802.99 528.98 1802.8 529.435C1802.61 529.89 1802.33 530.303 1801.99 530.652C1801.64 531 1801.22 531.276 1800.77 531.465C1800.31 531.653 1799.83 531.75 1799.33 531.75C1798.84 531.75 1798.35 531.653 1797.9 531.465C1797.44 531.276 1797.03 531 1796.68 530.652C1796.33 530.303 1796.06 529.89 1795.87 529.435C1795.68 528.98 1795.58 528.492 1795.58 528C1795.58 527.005 1795.98 526.052 1796.68 525.348C1797.39 524.645 1798.34 524.25 1799.33 524.25C1800.33 524.25 1801.28 524.645 1801.99 525.348C1802.69 526.052 1803.08 527.005 1803.08 528Z"
                stroke="#9CA3AF" stroke-linecap="round" stroke-linejoin="round" />
            <rect x="1810.33" y="524.5" width="170.667" height="7" rx="2" fill="#D1D5DB" />
            <path
                d="M1798.08 545L1798.92 545.833L1800.58 544.167M1803.08 545C1803.08 545.492 1802.99 545.98 1802.8 546.435C1802.61 546.89 1802.33 547.303 1801.99 547.652C1801.64 548 1801.22 548.276 1800.77 548.465C1800.31 548.653 1799.83 548.75 1799.33 548.75C1798.84 548.75 1798.35 548.653 1797.9 548.465C1797.44 548.276 1797.03 548 1796.68 547.652C1796.33 547.303 1796.06 546.89 1795.87 546.435C1795.68 545.98 1795.58 545.492 1795.58 545C1795.58 544.005 1795.98 543.052 1796.68 542.348C1797.39 541.645 1798.34 541.25 1799.33 541.25C1800.33 541.25 1801.28 541.645 1801.99 542.348C1802.69 543.052 1803.08 544.005 1803.08 545Z"
                stroke="#9CA3AF" stroke-linecap="round" stroke-linejoin="round" />
            <rect x="1810.33" y="541.5" width="170.667" height="7" rx="2" fill="#D1D5DB" />
            <path
                d="M1798.08 562L1798.92 562.833L1800.58 561.167M1803.08 562C1803.08 562.492 1802.99 562.98 1802.8 563.435C1802.61 563.89 1802.33 564.303 1801.99 564.652C1801.64 565 1801.22 565.276 1800.77 565.465C1800.31 565.653 1799.83 565.75 1799.33 565.75C1798.84 565.75 1798.35 565.653 1797.9 565.465C1797.44 565.276 1797.03 565 1796.68 564.652C1796.33 564.303 1796.06 563.89 1795.87 563.435C1795.68 562.98 1795.58 562.492 1795.58 562C1795.58 561.005 1795.98 560.052 1796.68 559.348C1797.39 558.645 1798.34 558.25 1799.33 558.25C1800.33 558.25 1801.28 558.645 1801.99 559.348C1802.69 560.052 1803.08 561.005 1803.08 562Z"
                stroke="#9CA3AF" stroke-linecap="round" stroke-linejoin="round" />
            <rect x="1810.33" y="558.5" width="170.667" height="7" rx="2" fill="#D1D5DB" />
            <path
                d="M1798.08 579L1798.92 579.833L1800.58 578.167M1803.08 579C1803.08 579.492 1802.99 579.98 1802.8 580.435C1802.61 580.89 1802.33 581.303 1801.99 581.652C1801.64 582 1801.22 582.276 1800.77 582.465C1800.31 582.653 1799.83 582.75 1799.33 582.75C1798.84 582.75 1798.35 582.653 1797.9 582.465C1797.44 582.276 1797.03 582 1796.68 581.652C1796.33 581.303 1796.06 580.89 1795.87 580.435C1795.68 579.98 1795.58 579.492 1795.58 579C1795.58 578.005 1795.98 577.052 1796.68 576.348C1797.39 575.645 1798.34 575.25 1799.33 575.25C1800.33 575.25 1801.28 575.645 1801.99 576.348C1802.69 577.052 1803.08 578.005 1803.08 579Z"
                stroke="#9CA3AF" stroke-linecap="round" stroke-linejoin="round" />
            <rect x="1810.33" y="575.5" width="170.667" height="7" rx="2" fill="#D1D5DB" />
            <rect x="1794.33" y="604" width="186.667" height="13" rx="2" fill="#1A56DB" />
            <rect x="1858.67" y="608.5" width="58" height="4" rx="1" fill="white" />
            <rect x="1778.83" y="413.5" width="217.667" height="219" rx="7.5" stroke="#D1D5DB" />
            <rect width="676" height="260" transform="translate(1321 670)" fill="white" />
            <rect x="1321" y="682" width="676" height="18" rx="8" fill="white" />
            <rect x="1321" y="682" width="199" height="6" rx="1" fill="#9CA3AF" />
            <rect x="1321" y="696" width="373" height="4" rx="1" fill="#D1D5DB" />
            <rect x="1321" y="726" width="238" height="5" rx="2" fill="#D1D5DB" />
            <rect x="1571" y="726" width="238" height="5" rx="2" fill="#D1D5DB" />
            <rect x="1321" y="747" width="238" height="5" rx="2" fill="#D1D5DB" />
            <rect x="1571" y="747" width="238" height="5" rx="2" fill="#D1D5DB" />
            <rect x="1321" y="768" width="238" height="5" rx="2" fill="#D1D5DB" />
            <rect x="1571" y="768" width="238" height="5" rx="2" fill="#D1D5DB" />
            <rect x="1321" y="789" width="238" height="5" rx="2" fill="#D1D5DB" />
            <rect x="1571" y="789" width="238" height="5" rx="2" fill="#D1D5DB" />
            <rect x="1321" y="810" width="238" height="5" rx="2" fill="#D1D5DB" />
            <rect x="1571" y="810" width="238" height="5" rx="2" fill="#D1D5DB" />
            <rect x="1321" y="841" width="238" height="5" rx="2" fill="#D1D5DB" />
            <rect x="1571" y="841" width="238" height="5" rx="2" fill="#D1D5DB" />
            <rect x="1321" y="862" width="238" height="5" rx="2" fill="#D1D5DB" />
            <rect x="1571" y="862" width="238" height="5" rx="2" fill="#D1D5DB" />
            <rect x="1321" y="883" width="238" height="5" rx="2" fill="#D1D5DB" />
            <rect x="1571" y="883" width="238" height="5" rx="2" fill="#D1D5DB" />
        </g>
    </g>
    <path
        d="M452.296 172.517L452.296 86.4076C452.296 73.1528 463.041 62.3851 476.296 62.3572L1688.2 59.8136C1701.46 59.7858 1712.2 70.5084 1712.2 83.7632V169.872"
        stroke="#D1D5DB" stroke-width="8" stroke-linecap="round" stroke-linejoin="round" />
    <path
        d="M441.07 182.313C441.103 176.238 446.055 171.33 452.13 171.35C458.205 171.37 463.103 176.311 463.07 182.386C463.037 188.461 458.086 193.37 452.011 193.35C445.936 193.329 441.038 188.388 441.07 182.313Z"
        fill="#F8FAFB" stroke="#9CA3AF" stroke-width="4" />
    <path
        d="M1698.31 171.019L1730.74 171.117C1731.57 171.119 1732.03 172.092 1731.51 172.745L1715.17 192.902C1714.77 193.4 1714.01 193.398 1713.61 192.897L1697.52 172.643C1697 171.987 1697.47 171.017 1698.31 171.019Z"
        fill="#F8FAFB" stroke="#9CA3AF" stroke-width="4" />
    <defs>
        <filter id="filter0_d_1999_2339" x="0" y="239" width="1051" height="852" filterUnits="userSpaceOnUse"
            color-interpolation-filters="sRGB">
            <feFlood flood-opacity="0" result="BackgroundImageFix" />
            <feColorMatrix in="SourceAlpha" type="matrix" values="0 0 0 0 0 0 0 0 0 0 0 0 0 0 0 0 0 0 127 0"
                result="hardAlpha" />
            <feOffset dy="10" />
            <feGaussianBlur stdDeviation="7.5" />
            <feColorMatrix type="matrix" values="0 0 0 0 0 0 0 0 0 0 0 0 0 0 0 0 0 0 0.15 0" />
            <feBlend mode="normal" in2="BackgroundImageFix" result="effect1_dropShadow_1999_2339" />
            <feBlend mode="normal" in="SourceGraphic" in2="effect1_dropShadow_1999_2339" result="shape" />
        </filter>
        <filter id="filter1_b_1999_2339" x="-35" y="194" width="348" height="922" filterUnits="userSpaceOnUse"
            color-interpolation-filters="sRGB">
            <feFlood flood-opacity="0" result="BackgroundImageFix" />
            <feGaussianBlur in="BackgroundImage" stdDeviation="25" />
            <feComposite in2="SourceAlpha" operator="in" result="effect1_backgroundBlur_1999_2339" />
            <feBlend mode="normal" in="SourceGraphic" in2="effect1_backgroundBlur_1999_2339" result="shape" />
        </filter>
        <filter id="filter2_d_1999_2339" x="1136" y="239" width="1046" height="852" filterUnits="userSpaceOnUse"
            color-interpolation-filters="sRGB">
            <feFlood flood-opacity="0" result="BackgroundImageFix" />
            <feColorMatrix in="SourceAlpha" type="matrix" values="0 0 0 0 0 0 0 0 0 0 0 0 0 0 0 0 0 0 127 0"
                result="hardAlpha" />
            <feOffset dy="10" />
            <feGaussianBlur stdDeviation="7.5" />
            <feColorMatrix type="matrix" values="0 0 0 0 0 0 0 0 0 0 0 0 0 0 0 0 0 0 0.15 0" />
            <feBlend mode="normal" in2="BackgroundImageFix" result="effect1_dropShadow_1999_2339" />
            <feBlend mode="normal" in="SourceGraphic" in2="effect1_dropShadow_1999_2339" result="shape" />
        </filter>
        <filter id="filter3_dd_1999_2339" x="1294" y="276" width="730" height="42" filterUnits="userSpaceOnUse"
            color-interpolation-filters="sRGB">
            <feFlood flood-opacity="0" result="BackgroundImageFix" />
            <feColorMatrix in="SourceAlpha" type="matrix" values="0 0 0 0 0 0 0 0 0 0 0 0 0 0 0 0 0 0 127 0"
                result="hardAlpha" />
            <feOffset dy="1" />
            <feGaussianBlur stdDeviation="1.5" />
            <feColorMatrix type="matrix" values="0 0 0 0 0 0 0 0 0 0 0 0 0 0 0 0 0 0 0.1 0" />
            <feBlend mode="normal" in2="BackgroundImageFix" result="effect1_dropShadow_1999_2339" />
            <feColorMatrix in="SourceAlpha" type="matrix" values="0 0 0 0 0 0 0 0 0 0 0 0 0 0 0 0 0 0 127 0"
                result="hardAlpha" />
            <feOffset dy="1" />
            <feGaussianBlur stdDeviation="1" />
            <feColorMatrix type="matrix" values="0 0 0 0 0 0 0 0 0 0 0 0 0 0 0 0 0 0 0.06 0" />
            <feBlend mode="normal" in2="effect1_dropShadow_1999_2339" result="effect2_dropShadow_1999_2339" />
            <feBlend mode="normal" in="SourceGraphic" in2="effect2_dropShadow_1999_2339" result="shape" />
        </filter>
        <clipPath id="clip0_1999_2339">
            <rect x="295" y="308" width="4" height="12" rx="2" fill="white" />
        </clipPath>
        <clipPath id="clip1_1999_2339">
            <rect x="295" y="330" width="4" height="12" rx="2" fill="white" />
        </clipPath>
        <clipPath id="clip2_1999_2339">
            <rect x="295" y="352" width="4" height="12" rx="2" fill="white" />
        </clipPath>
        <clipPath id="clip3_1999_2339">
            <rect x="295" y="374" width="4" height="12" rx="2" fill="white" />
        </clipPath>
        <clipPath id="clip4_1999_2339">
            <rect x="295" y="396" width="4" height="12" rx="2" fill="white" />
        </clipPath>
        <clipPath id="clip5_1999_2339">
            <rect x="295" y="418" width="4" height="12" rx="2" fill="white" />
        </clipPath>
        <clipPath id="clip6_1999_2339">
            <rect x="295" y="440" width="4" height="12" rx="2" fill="white" />
        </clipPath>
        <clipPath id="clip7_1999_2339">
            <rect x="295" y="462" width="4" height="12" rx="2" fill="white" />
        </clipPath>
        <clipPath id="clip8_1999_2339">
            <rect x="295" y="484" width="4" height="12" rx="2" fill="white" />
        </clipPath>
        <clipPath id="clip9_1999_2339">
            <rect x="295" y="506" width="4" height="12" rx="2" fill="white" />
        </clipPath>
        <clipPath id="clip10_1999_2339">
            <rect x="295" y="528" width="4" height="12" rx="2" fill="white" />
        </clipPath>
        <clipPath id="clip11_1999_2339">
            <rect x="295" y="550" width="4" height="12" rx="2" fill="white" />
        </clipPath>
        <clipPath id="clip12_1999_2339">
            <rect x="295" y="572" width="4" height="12" rx="2" fill="white" />
        </clipPath>
        <clipPath id="clip13_1999_2339">
            <rect x="295" y="594" width="4" height="12" rx="2" fill="white" />
        </clipPath>
        <clipPath id="clip14_1999_2339">
            <rect x="295" y="616" width="4" height="12" rx="2" fill="white" />
        </clipPath>
        <clipPath id="clip15_1999_2339">
            <rect x="295" y="638" width="4" height="12" rx="2" fill="white" />
        </clipPath>
        <clipPath id="clip16_1999_2339">
            <rect x="295" y="660" width="4" height="12" rx="2" fill="white" />
        </clipPath>
        <clipPath id="clip17_1999_2339">
            <rect x="295" y="682" width="4" height="12" rx="2" fill="white" />
        </clipPath>
        <clipPath id="clip18_1999_2339">
            <rect x="295" y="704" width="4" height="12" rx="2" fill="white" />
        </clipPath>
        <clipPath id="clip19_1999_2339">
            <rect x="295" y="726" width="4" height="12" rx="2" fill="white" />
        </clipPath>
        <clipPath id="clip20_1999_2339">
            <rect x="295" y="748" width="4" height="12" rx="2" fill="white" />
        </clipPath>
        <clipPath id="clip21_1999_2339">
            <rect x="295" y="770" width="4" height="12" rx="2" fill="white" />
        </clipPath>
        <clipPath id="clip22_1999_2339">
            <rect x="295" y="792" width="4" height="12" rx="2" fill="white" />
        </clipPath>
        <clipPath id="clip23_1999_2339">
            <rect x="295" y="814" width="4" height="12" rx="2" fill="white" />
        </clipPath>
        <clipPath id="clip24_1999_2339">
            <rect x="295" y="836" width="4" height="12" rx="2" fill="white" />
        </clipPath>
        <clipPath id="clip25_1999_2339">
            <rect width="681" height="603" fill="white" transform="translate(331 298)" />
        </clipPath>
        <clipPath id="clip26_1999_2339">
            <rect width="724" height="616" fill="white" transform="translate(1297 278)" />
        </clipPath>
    </defs>
</svg>