<svg id="graphics" xmlns="http://www.w3.org/2000/svg" xmlns:xlink="http://www.w3.org/1999/xlink" viewBox="0 0 2295.35 566.93"><defs><style>.cls-1{fill:url(#linear-gradient);}.cls-2{fill:url(#linear-gradient-2);}</style><linearGradient id="linear-gradient" x1="420.95" y1="87.03" x2="420.95" y2="447.1" gradientUnits="userSpaceOnUse"><stop offset="0.09" stop-color="#bdbdbd"/><stop offset="0.3" stop-color="#cfcfcf"/><stop offset="0.49" stop-color="#dadada"/><stop offset="0.72" stop-color="#dadada"/><stop offset="1" stop-color="#bdbdbd"/></linearGradient><linearGradient id="linear-gradient-2" x1="-1889.83" y1="85.83" x2="-1889.83" y2="447.55" gradientTransform="matrix(-1, 0, 0, 1, -1468.89, 0)" gradientUnits="userSpaceOnUse"><stop offset="0" stop-color="#00d7fb"/><stop offset="1" stop-color="#1488d4"/></linearGradient></defs><path class="cls-1" d="M146.13,451.82h60.66c16.33,0,15.85-14.34,12-20.07a45.34,45.34,0,0,1-5.9-38.68l31.3-103.54a50.53,50.53,0,0,1,48.34-36H549.38a50.53,50.53,0,0,1,48.34,36L629,393.07a45.37,45.37,0,0,1-5.91,38.68c-3.88,5.73-4.35,20.07,12,20.07h60.65c53.7,0,92.15-51.66,76.75-103.1L711.64,145.26a88.67,88.67,0,0,0-84.83-63.2S487.32,186.24,421.18,186.24,215.08,82.06,215.08,82.06a88.66,88.66,0,0,0-84.83,63.2L69.39,348.72C54,400.16,92.44,451.82,146.13,451.82Z"/><path class="cls-2" d="M421,176c11.71,0,19.41-19.94,31.61-48.83C471.65,82,504,82.06,533.39,82.06h93.42c66.87,0,84.83,63.2,84.83,63.2-19.81-47.82-90.84-58.23-120,11.52C567.65,214.1,489.3,392,489.3,392,474,428.62,453,448.42,421,448.42s-53-19.8-68.36-56.43c0,0-78.36-177.89-102.33-235.21-29.17-69.75-100.2-59.34-120-11.52,0,0,18-63.2,84.83-63.2H308.5c29.39,0,61.74-.11,80.83,45.08C401.53,156,409.23,176,421,176Z"/><path d="M973.32,215.62h59.78l41.12,100.21h2.07l41.12-100.21h59.78V392.54h-47V290.26h-1.38l-39.39,100.89h-28.34L1021.7,289.56h-1.38v103h-47Z"/><path d="M1237.66,394.61a56.29,56.29,0,0,1-22.42-4.19A33.4,33.4,0,0,1,1200,377.68q-5.54-8.55-5.53-21.77,0-10.89,3.71-18.62a33.52,33.52,0,0,1,10.37-12.65,48.72,48.72,0,0,1,15.5-7.52,93,93,0,0,1,19.14-3.37,178.88,178.88,0,0,0,17.92-2.11q6.78-1.26,9.81-3.55a7.26,7.26,0,0,0,3-6.09v-.34a9.08,9.08,0,0,0-4-8,17.49,17.49,0,0,0-10.19-2.76q-6.83,0-11.11,3t-5.14,9.11h-43.88a45.29,45.29,0,0,1,7.73-22.33q6.87-10.23,20.09-16.41t33-6.18a90.6,90.6,0,0,1,25.57,3.33,60.51,60.51,0,0,1,19.26,9.24,41.41,41.41,0,0,1,12.14,13.82,36.11,36.11,0,0,1,4.19,17.15v90.88h-44.58V373.88h-1a38.61,38.61,0,0,1-9.64,12,36.06,36.06,0,0,1-12.87,6.66A57.31,57.31,0,0,1,1237.66,394.61Zm15.55-30.06a23.82,23.82,0,0,0,10.24-2.25,19.73,19.73,0,0,0,7.81-6.48,17.19,17.19,0,0,0,3-10.28V334.49c-1.27.51-2.61,1-4,1.46s-2.91.9-4.49,1.3-3.26.78-5,1.12-3.59.67-5.49.95a27.33,27.33,0,0,0-9,2.81,13.53,13.53,0,0,0-5.19,4.75,12,12,0,0,0-1.68,6.26,10,10,0,0,0,3.89,8.47A16,16,0,0,0,1253.21,364.55Z"/><path d="M1344.43,392.54V259.85h47.68V392.54ZM1368.27,246a23.51,23.51,0,0,1-16.58-6.4,20.56,20.56,0,0,1,0-30.75,24.77,24.77,0,0,1,33.21,0,20.64,20.64,0,0,1,0,30.75A23.5,23.5,0,0,1,1368.27,246Z"/><path d="M1495.43,259.85V294.4H1408V259.85Zm-70.49-31.79h47.68v121.8a10.08,10.08,0,0,0,1,4.62,6,6,0,0,0,2.94,2.77,12.4,12.4,0,0,0,5.1.9,29.68,29.68,0,0,0,5.05-.51c1.93-.35,3.35-.64,4.28-.87l6.91,33.52q-3.19.94-9.12,2.33a81.69,81.69,0,0,1-14,1.82q-16.42.85-27.56-3.42t-16.76-13.52q-5.61-9.24-5.44-23.15Z"/><path d="M1514.77,392.54V259.85h46.31v25.22h1.38q3.63-14,11.53-20.47a28.35,28.35,0,0,1,18.53-6.48,40,40,0,0,1,6.18.48,43.06,43.06,0,0,1,5.91,1.33v40.69a42.79,42.79,0,0,0-8.72-1.81,79.38,79.38,0,0,0-8.9-.61,25,25,0,0,0-12.57,3.16,22.85,22.85,0,0,0-8.77,8.81,26.51,26.51,0,0,0-3.19,13.26v69.11Z"/><path d="M1620.16,392.54V259.85h47.69V392.54ZM1644,246a23.53,23.53,0,0,1-16.58-6.4,20.56,20.56,0,0,1,0-30.75,24.77,24.77,0,0,1,33.21,0,20.64,20.64,0,0,1,0,30.75A23.48,23.48,0,0,1,1644,246Z"/><path d="M1756,395q-21.6,0-37-8.6a58.47,58.47,0,0,1-23.58-24q-8.2-15.42-8.21-35.8t8.21-35.81a58.45,58.45,0,0,1,23.58-24q15.38-8.6,37-8.6,19.51,0,33.82,7A52.57,52.57,0,0,1,1811.93,285q7.86,12.83,8,30.1h-44.23q-.95-10.44-6-15.93a16.87,16.87,0,0,0-13-5.49,17.37,17.37,0,0,0-10.89,3.59q-4.66,3.58-7.25,10.79t-2.6,18.1q0,10.89,2.6,18.1t7.25,10.8a17.36,17.36,0,0,0,10.89,3.58,17.66,17.66,0,0,0,9.33-2.46,18.3,18.3,0,0,0,6.61-7.25,29.56,29.56,0,0,0,3.06-11.71h44.23q-.26,17.53-8,30.54a52,52,0,0,1-22,20.08Q1775.66,394.95,1756,395Z"/><path d="M1876.55,394.61a56.25,56.25,0,0,1-22.42-4.19,33.48,33.48,0,0,1-15.25-12.74q-5.52-8.55-5.52-21.77,0-10.89,3.71-18.62a33.52,33.52,0,0,1,10.37-12.65,48.72,48.72,0,0,1,15.5-7.52,92.88,92.88,0,0,1,19.14-3.37,178.88,178.88,0,0,0,17.92-2.11q6.78-1.26,9.81-3.55a7.26,7.26,0,0,0,3-6.09v-.34a9.1,9.1,0,0,0-4-8,17.5,17.5,0,0,0-10.2-2.76q-6.83,0-11.1,3t-5.14,9.11h-43.88a45.19,45.19,0,0,1,7.73-22.33q6.87-10.23,20.08-16.41t33-6.18a90.5,90.5,0,0,1,25.57,3.33,60.46,60.46,0,0,1,19.27,9.24,41.27,41.27,0,0,1,12.13,13.82,36,36,0,0,1,4.19,17.15v90.88h-44.57V373.88h-1a38.59,38.59,0,0,1-9.63,12,36.06,36.06,0,0,1-12.87,6.66A57.31,57.31,0,0,1,1876.55,394.61Zm15.55-30.06a23.74,23.74,0,0,0,10.23-2.25,19.69,19.69,0,0,0,7.82-6.48,17.19,17.19,0,0,0,3-10.28V334.49c-1.27.51-2.61,1-4,1.46s-2.91.9-4.49,1.3-3.26.78-5,1.12-3.59.67-5.49.95a27.39,27.39,0,0,0-9,2.81,13.5,13.5,0,0,0-5.18,4.75,12,12,0,0,0-1.68,6.26,10,10,0,0,0,3.88,8.47A16,16,0,0,0,1892.1,364.55Z"/></svg>